/* XPM */
static char *dummy[]={
"64 64 188 2",
"#7 c #66624d",
"a. c #66624e",
"#4 c #66634e",
"#C c #66634f",
"#B c #67644f",
"#A c #676450",
"#u c #686550",
"#s c #686551",
"az c #696550",
"#q c #696651",
"#n c #696652",
"aA c #696752",
"#o c #6a6651",
"#m c #6a6652",
"#D c #6a6751",
"#d c #6a6752",
"#j c #6b6752",
"#E c #6b6852",
".h c #6b6853",
"#M c #6c6853",
"aC c #6c6953",
"aS c #6c6954",
"aD c #6d6954",
"aG c #6d6a54",
"aN c #6d6a55",
"aK c #6e6a54",
"aH c #6e6a55",
"al c #7f7e72",
"ag c #7f7f72",
"a# c #807f71",
"ac c #807f72",
"ad c #807f73",
"#8 c #818072",
"#9 c #818073",
"an c #828173",
"#2 c #828174",
"ak c #838274",
"aj c #848375",
"#5 c #868575",
"am c #868576",
"af c #868677",
"#U c #878675",
"#T c #878676",
"au c #888676",
"#6 c #888678",
"#O c #888776",
"#P c #888777",
"aa c #898776",
"ap c #898777",
"#Z c #898779",
"aZ c #89877b",
"#J c #898877",
"#I c #898878",
"aX c #89887b",
"ab c #8a8877",
"#Q c #8a8878",
"#V c #8a8879",
"#N c #8a8978",
"#G c #8a8979",
"as c #8a8a79",
"#X c #8b8979",
"#H c #8b8a79",
"#W c #8b8a7a",
"#0 c #8c8a79",
"ao c #8c8a7a",
"aq c #8c8b79",
"#F c #8c8b7a",
"#K c #8c8b7b",
".S c #8d8a7c",
"ah c #8d8b7a",
"ai c #8d8b7b",
"## c #8d8b7c",
".G c #8d8b7d",
"#k c #8d8c7b",
"#l c #8d8c7c",
".5 c #8d8c7d",
".M c #8d8c7e",
"ar c #8d8d7c",
".R c #8e8b7d",
"#3 c #8e8c7b",
"#x c #8e8c7c",
".C c #8e8c7d",
".v c #8e8c7e",
"ax c #8e8d7b",
"#h c #8e8d7c",
".U c #8e8d7d",
".r c #8e8d7e",
".O c #8e8d7f",
"#1 c #8f8d7c",
"#g c #8f8d7d",
".F c #8f8d7e",
"#R c #8f8e7c",
".Y c #8f8e7d",
".2 c #8f8e7e",
".m c #8f8e7f",
"at c #8f8f7e",
"#y c #908e7d",
".Q c #908e7e",
"aY c #908e7f",
"a2 c #908e80",
"#Y c #908f7d",
".A c #908f7e",
".7 c #908f7f",
"#t c #90907e",
"av c #90907f",
"aW c #918e80",
".1 c #918f7e",
".# c #918f7f",
"a0 c #918f80",
"#r c #91907e",
".a c #91907f",
".3 c #919080",
"aw c #919180",
"a3 c #928f80",
"#S c #92907e",
".z c #92907f",
".B c #929080",
"#f c #92917f",
"Qt c #929180",
".b c #929181",
"#L c #93917f",
".0 c #939180",
".y c #939181",
"aF c #93927f",
"#z c #939280",
".c c #939281",
"ay c #939282",
"#v c #949280",
".d c #949281",
".I c #949282",
"#. c #949381",
".e c #949382",
"aB c #949383",
"ae c #959281",
"#w c #959381",
".f c #959382",
".J c #959383",
".x c #959482",
".g c #959483",
"aE c #959484",
".8 c #959584",
"#p c #969382",
"#i c #969383",
"#c c #969482",
".i c #969483",
".T c #969484",
"#b c #969583",
".j c #969584",
"aJ c #969585",
"aQ c #969685",
"#e c #979483",
".9 c #979583",
".K c #979584",
".V c #979585",
".H c #979684",
".k c #979685",
"aR c #979686",
".X c #989584",
".4 c #989684",
".w c #989685",
"aM c #989686",
".L c #989785",
".l c #989786",
"a5 c #989887",
"#a c #999684",
".W c #999685",
".N c #999785",
".D c #999786",
"aI c #999886",
"aO c #999887",
".Z c #9a9785",
".E c #9a9786",
".p c #9a9886",
".t c #9a9887",
".6 c #9a9987",
"aP c #9a9988",
".q c #9b9886",
".o c #9b9887",
".s c #9b9987",
".P c #9b9988",
".n c #9c9987",
"aL c #9c9988",
".u c #9c9a88",
"a4 c #9c9a89",
"aU c #9d9a88",
"aT c #9d9a89",
"aV c #9d9b89",
"a1 c #9e9b89",
"Qt.#.#.#.#.a.a.aQt.b.c.c.c.c.c.c.c.d.e.f.g.g.g.f.h.g.g.i.j.j.j.j.k.k.l.l.l.l.l.m.n.m.m.o.p.q.r.s.n.m.p.t.u.v.w.k.i.i.x.d.y.c.c.d",
".z.a.#.#.A.a.a.a.BQtQt.c.c.c.c.c.c.c.c.e.g.g.g.g.h.g.g.j.j.j.j.j.k.k.w.l.l.l.w.w.m.n.r.C.D.E.F.o.o.v.p.p.o.G.v.H.j.i.g.I.y.y.y.y",
".B.B.#.A.A.a.a.a.BQtQt.c.c.c.c.c.c.c.c.c.J.g.g.g.h.i.i.j.j.j.j.j.K.K.k.l.L.w.w.w.M.q.N.C.v.E.p.r.D.D.O.P.s.p.r.k.K.i.i.f.c.c.y.y",
".B.B.a.#.A.Q.A.aQtQtQtQt.c.c.c.c.c.c.c.c.e.f.g.g.h.g.g.g.g.j.j.j.j.k.k.l.w.k.w.w.G.G.w.D.v.E.N.C.R.N.v.m.s.p.C.S.T.f.i.i.I.d.d.d",
"Qt.B.a.A.Q.A.U.AQtQtQtQt.c.c.c.c.c.c.c.c.e.e.e.f.h.g.g.g.g.j.j.j.j.k.k.V.k.k.w.w.w.w.G.w.W.R.R.W.G.N.N.p.t.o.t.X.i.x.x.f.d.c.c.I",
".a.A.#.#.A.#.Y.AQtQtQtQt.c.c.b.c.c.c.c.c.d.e.e.e.h.g.g.g.g.j.j.j.j.j.j.j.k.w.w.w.w.w.G.X.K.K.G.w.w.C.N.E.E.t.p.Z.w.i.f.x.d.c.c.0",
".a.#.A.A.A.1.2.2.3QtQt.B.c.cQt.c.c.c.c.c.c.e.e.e.h.g.g.g.g.j.j.j.j.j.j.j.k.w.w.w.k.K.K.K.K.K.H.4.w.G.5.Z.6.s.p.E.W.j.i.i.f.d.0.z",
".a.a.#.Q.Y.A.A.U.7QtQt.a.0.yQt.c.c.c.c.c.c.e.e.e.h.f.g.g.j.j.j.j.8.j.K.k.j.H.k.H.K.K.K.K.K.K.K.K.4.4.R.D.E.o.p.D.N.W.9.K.f#..y.a",
".a.#.1.A.Y.Q.A.U.AQt.a.aQt.yQtQt.y.c.y.c.c.c.I.e.h.f.g.g.g.g.i.j.j.j.k.K.j.j.K.K.K.K.K.K.K.K.K.X.4.4##.G.N.D.D.N.N.W.w.w.9.f.dQt",
".B.#.7.A.Q.Y.2.Y.Y.a.a.AQtQtQtQtQt.c.cQt.c.c.e.e.h.f.J.g.g.g.j.j.j.j.k.k.K.j.j.K.K.j.j.K.K.K.K.K.K.K.K.K.4.H.4.K.X.w.w#a.K.f.cQt",
"Qt.B.#.A.Y.Y.Y.Y.Y.a.a.7.aQtQtQtQtQt.yQt.c.c.c.c.h.e.e.e.f.g.j.K.k.j.g.j.j#b#b.j.j.i.K.K.K.K.K.9.9.K.K#b.K.K.H.9.9.K.H.4.4#c.0.B",
".z.a.3.1.A.Y.Y.Y.Y.A.#.A.7QtQtQt.B.aQtQtQtQt.0.c#d.e.c.e.e.g.j.K.K.g.g.H.K.K.K.K.K#b.9#b.i#b.K.9.i.i.K#b#b.K.H.i#e.i.i.x.i.K.y#f",
".BQt.zQt.A.Y.Y#g#h.Q.1.Y.Q.aQt.B.a.a.aQt.B.0Qt.c#d.c.c.e.h.h.h.9#i.x.g.K.i#b.i.i.K.K.i.i.9#b.K.K.9.i#e.K.i.K.K#c.i#c.f.f.f.i.g.0",
".d.z.0.0.7.A.Y.U#h#g.2.Y.Y.7Qt.a.aQtQtQtQt#d.c.c#d.c.c#j#j.0.h.h#..d.f.i.g.i.g.i.i.i.i.i.i#b#b.j.i.i.9.K.i.i#b.i.f.f.f.f.f.f.f.f",
".f.d.cQt.a.a.A.U#h#k.Y.Y#l.2.a.a.A.a.B.3#m#n#d.c#dQt.0#oQt#d.c.h.c.c.e.f.i.e.g.f.f.x.x.i.i#b.i.9.K.9.i#e#c#p.i.i.f.f.f.f.f.f.f.f",
".x.f.dQtQt.#.Q.Y#h#k#h#h#h.Y.7.A.A.a.a.a#q#q#qQt#d.a.A#q.z#d.z#j.0#r.z.c.f.c.d.f.f.f.x.x.i.i.i.i.9#e.i.i.x.f.f#p.f.f.f.f.f.x.f.f",
".f.x.f.d.B.a.1.Y.U#h#l#h#h#h.Y.A.A.A.A.7.A#s.2.7#q#t.A#u.U.A.A#o.z.Y.1.0.c.z.0#v#w#w#.#w.x.i.i.i.i.i.i.x.f#w#.#w.f.e#.#w.f.i.i.f",
".f.f.f.f.d.0.A.Y.Y.U#h#x#k#l#h.Y.2.Y.2.A.2.2.Y.Y#u.Q.Y#u#k#y.A#u.A#h#h.Y.7.a#f.0.d.d#z.d.f.i.i.f.f#c.x.f.f#w#w.d.d#..d.f.f.f.f.f",
".f.f.f.f#j#d#q#u#u#u#A#A#B#A#u#u#u#u#s#q#q#s#u#u#u#u#u#u#C#B#A#B#B#B#B#u#u#q#o#D#o#d#d#j.h.h.h.h.h.h#j#j#j#E.d.d.d.d.d.d.x#i.f.f",
".h.h.h.h#j.dQt.A#h#h#h#h#h#h.U.Y.Y.Y.Y.A.A.2.Y.Y#u#l#k#F#G#H#F#H#I#J#G#K#h.1.#.2.a#L.0.0.d#..d.d.d.d.d.d.d#j#j#j#j#j#j#j#M#M#M.h",
".f.f.f.f#..dQt#r.Y#h#l#h#h.U.Y.Y.Y.Y.Y.2.A.2.Y#g#u#h#A#K#G#I#G#G#I#J#J#G#k#y.A#y.a.1.z.0.0.z.z.0.d.d.d.0.z.0.d#v.d.c.d.d.f.f.i.f",
".f.e.f.f.d.y.z.A#h#k#k#h#h#h.U.Y.Y.2.Y.2.2.2.Y#h#u#h#A#C#N#O#P#J#P#O#J#Q#F.Y#h.Y.A#R.A#S.0.z.z.0.0.0.0Qt.z#f.0.c#z.d.d.c.c#..x#c",
".x#..d#..c.0.z.a#h#k#l#h#h#h.U.U.Y.2.Y.Y.Y.Y.Y.U#u#h#h#K#G#P#T#T#U#P#J#J#G#h#h.A.A.Y.A.A.z.z.1.z.z.z.z.a.z.z.0.0.0.0.0#V.c#z#w#c",
".f.f.d.cQt.0Qt.#.U#l#l#h#h#h.U.Y.Y.Y.Y.U.U.Y.Y.U#u.U#h#K#W#G#J#T#T#O#P#T#O#H#G#X#F#K#Y.A#y.A#y.Y.A.z.1.a.z.z.0.0.0.0#Z#Z#z#v.d.i",
".f.f#..c.#.1.#.z.A.Y#k#l#h#h.U.Y.Y.Y.Y.U.U.Y.2.U#A#u#u#B#B#G#I#T#T#T#U#U#T#G#N#H#F#0#F.Y.Y#y.Y#1.Y.1.1.A.1.z.0.0.0#Z#2.0.0#z.d.g",
"#..d.c.bQt#r#y.A.A.U#3#k#k#l.U.Y.2.2.Y.Y.Y.Y.2#h#u#k#l#K#C#4#P#T#T#T#U#U#5#I#N#J#P#G#H#0#h#h.Y.Y#1.Y.1.1.A.1.z.z#6#2#Z.0#z#z.d#p",
".0.d#z.0.0.z#Y#h#h#h#l#k#k#k#h.Y.A.2.Y.2.2.A.A.Y#u#l#A#C#H#4#7#T#P#P#T#5#5#O#G#N#J#8#N#N#H#F#3#h#1.Y#y.A#Y#y.1#9#9.z.0.c.d.d.d#w",
"#fQtQtQt#f.z#y#h#k#k#l#k#k#h#h.Y.A.2.Y.2.2.Y.A.Y#u#l#l#K#H#4a.#J#I#N#O#5#5#5#G#N#Ta#aaab#N#H#H#k#h#1.Y.Y.A#yacad.A.A.zQt.0.d#zae",
"#f.z.a.A#Y.A.Y#h#K#F#k#h#l#k#h.Y.2.Y.Y.Y.U.Y.2.A#u#u#u#A#B#B#H#G#W#H#P#P#T#T#I#P#T#U#O#J#J#N#H#W#3#x#k#hafagac#Y#Y.A#y.z.0.c.0.0",
".1#y.Y#3#k#3#h#kah#k#F#F#F#k#k.Y.2.Y.2.A.Y.Y.2#h#u.Y.Y.Y#l#k#W#W#F#H#G#J#O#O#J#I#5#U#T#J#J#I#N#H#Faiajakalam#Y.Y#R#y.Y.#.z.0Qt#f",
".Y#h#h#kah#F#F#k#K#k#F#W#K#F#F#l.Y.Y.2.A.A.2.A.U#u.Y#u#u#h#k#k#k#K#F#H#G#N#I#G#N#J#5#P#O#J#J#N#H#W#F#Fakaj.Y#y.Y#g.Y.Y.A.1.a.z.z",
"#3#k#F#F#k#F#F#F#K#K#F#W#K#F#F#l.U.Y.A.7.7.A.A.Y#u.U.Y#u#l#l#l#k#K#K#k#F#H#G#H#I#O#J#J#O#J#J#I#Han#2#2#W#F#k#h#R#1#1#1#1#y#Y.1#y",
"#k#k#kahah#F#W#H#W#W#W#K#k#k#K#k#h.Y.Y.A.A.A.A.U#u#h.U#h#h.Y#h#l#h.U#h#h#F#F#F#G#P#P#O#O#P#N#I#Xan#H#H#Hao#F#F#l#3#k#3#1.Y#y.A#g",
"ah#kah#F#F#F#H#H#W#W#F#W#W#K#F#F#h#h#h.2.A.a.a.a#u#h.Y.U.U.Y.A#h.Y.U.Y.2#h#K#l#W#J#T#Tap#P#O#N#N#G#H#H#Haq#F#Fah#h#k#3#3#h#3#3#h",
"#k#0#F#F#H#X#G#W#W#F#F#H#W#F#F#H#k.U.Y.Y.A.aQtQt#d#h#q#s.Y.7.A.2.2.Y.A.A.Yar#h#kas#P#I#O#O#O#J#N#Q#N#H#H#F#F#Fao#K#3#h#h#h#h#hai",
"#kai#H#F#K#X#H#W#W#F#F#W#W#H#F#W#l#l.U.2.2.A.aQt#d.a#q#q.a.a.A.A.A.A.2.A.A.Y.U#h#K#G#I#O#O#P#Q#N#N#G#X#H#H#H#F#F#F#3#1#1#1.Y#1#3",
"#h#3#k#k#k#K#0#F#F#F#F#F#W#W#F#K#K#K.Y.A.A.a.aQt#dQt.3.a.a.a.a.a.a.A.2.A.Aat.Y#g#l#K#G#Jau#P#N#J#N#Q#H#H#Hao#Fah#F#h#1#1#1.Y#y#y",
"#y.Y#h#h#l#K#Hah#F#F#F#F#W#W#H#K#k#h.Y.2.2.2.aQt#dQtQtQt.a.a.a.3.a.3.a.Aav.A.A.Y#h#l#K#G#J#P#I#Q#I#J#N#Haoao#F#F#Fai#h#h#1#g#y.A",
"#Y#y.Y.Y.Y#F#F#Fah#F#K#K#F#F#H#k#F#l.Y.Y.2.A.a.a#d.b#d#d.3.aQtaw.3.3.a.7Qt.3.7.A.Y#h#h#l#W#I#P#I#N#J#I#N#H#F#W#F#F#F#3#h.Y.Y#y.1",
"#Y#y.Y.Y.A#3#F#F#Wai#k#K#K#K#F#k#k#h#h.U.Y.A.aQt#n.b#dQtQt.3.bawawQtQt.aQtQt.a.7.7.Q.Y.U#h#W#H#X#J#J#P#J#F#F#W#F#kai#h#1.Y#y#y.1",
".z#y.Y#y#y#h#k#F#F#K#k#k#k#K#F#h#h.U#h.U.A.7.aQt#dQtQtQtQtQt.c.cQtQt.b.3awQt.a.A.aQt.A.2.Y#k#W#N#N#N#N#G#H#F#Fao#k#x#3#R#y.A#y.A",
".z#r.A.Q.A.Y#1ax#k#k#l#k#k#k#l.U.U.Y.Y.Y.a.a.3Qt#dQt#d#d.c.c.cayQtQtQtQtQtQtQt.a.7Qt.a.a.A.U#k#F#I#N#X#F#H#F#F#F#h.Y#g#g#g#y#y#y",
"#q#q#q#q#q#q#u#u#u#u#u#A#A#A.Y.U.Y.2.Y.AawQtQtQt#d.0.c#dQt.c.e.e.bQtQtQt.aQt.cQt.aQtQt.a.a.2.Y#h#F#H#u#B#B#B#B#B#u#qaz#u#u#uaz#q",
".z.z.0.z.z.a.1.A.Y.U.U.U#h#u#u#q#s#q#q#n#d#d#d#d#d#d#d#d#d#d.h.h#d#d#d#d#daA#d#d#d#d#d#d#d#q#q#q#u#u#B#Wao#k#k#k.Y.Y.A.Y.Y.Y.z.c",
".0#d#dQt#o.#.1#q#q.A.Y.Y.U#h.Y#q.A.aQt.Y#d.c.c.c.h.e.d#..e.c.e.gaB.eay.c.cQt.b.b.BQt.cQtQtQtQt.eQt.7.Y.U#B#B#B#h.Y.Y#q.a.1#o#d.d",
"#.#d#d.0#m#q.a.a#q.7.2#u#u#h.Y#q.a.3.c.c#d.c#E.e.h.f.e.h.h.e.e.g.h.h.e.e.eay#d.cQtQtQt.cQt#d#d#daB.cQt.A.Y#u.A.Y.A.A#q#q.a#d#w.f",
".x#v#zaeQt.1.z.z.A.a.A.a#q.A.A#d.a.a.d.c.h.e.h.e.h.e.f.h.h.f.g.i.i#M.h.g.f.e.h.h.c.c.c.cQtQt#d#d.g.e.c.3.cay.c.y.cQt.a.a.zQt.0.i",
".X.f.d.xQt.a.a#f.1.1.A.a.3.a.3#d.3Qt.c.f.h.g.i.g.h.x.g.g.i.i.g.g.i.K#b.i.i.f.g.x.x.d.eayQt.aQt.cay.e.e.c.e.j.g.d.g.d.0Qt.0.c.0.c",
".f.e.d.eayQtQtQtQt.a.a.a.a.aQt#d.c#d#E.g#M.i.j.jaC.g.i.i.j.K.9.K.j.j.H.K#b.g.g#b.g.e.f.J.I.3Qt.I.gaB.g.e.g.j#b.g.c.e.d.c.c.c.d.e",
".g.i.e.e.g.c.cQt.bQt.aQt.zQt.c#d.e.h.h.iaC.j.j.KaD.j#e.k.K.H.k.k.K.K.H.k.H.j.j.iaE.e.e.j.gay.c.e.g.g.g.j.g.g.g.gQt.e.f#..c.e.f.f",
".i.j#b.g.i.e.c.c.e.bQt.c.c.e.e#j.x.e.eaFaD.w.k.waD.k.k.w.w.k.w.w.w.w.H.w.w.w.H.K.K.g.g.i.H.g.e.g.j.g.g.j.k.j.j.j.g.e.j.j.f.g.i#b",
".H.j.g.j.j.g.c.c.g.e.c.e.e.e.e.h#M.T.d#MaD.l.w.laG.l.D.N.D.L.L.D.D.w.k.w.N.D.D.L.L.w.j.j.H.H.i.g.j.j.g.j.k.j.j.j.j.j.j.k.k.j.j.j",
".k.k.j.j.j.g.e.c.j.g.e.e.d.e.f.xaCaCaCaC.k.w.w.NaH.D.D.D.DaI.D.D.E.w.w.w.L.D.E.p.t.s.t.D.w.L.k.j.H.kaJ.k.k.k.k.j.V.l.k.k.l.k.j.k",
".l.L.j.K.j.j.e.eaE.jaB.e.e.J.f.g.g.i.j.K.H.w.N.DaKaI.l.p.t.p.D.paIaI.N.N.D.D.p.t.s.s.s.s.s.p.D.l.L.l.l.l.l.l.k.j.8.k.w.l.l.l.k.k",
".l.k.j.K.k.k.g.e.g.j.g.e.e.g.g.g.i.j.j.j.K.k.w.laK.p.D.E.t.t.t.s.s.p.N.L.D.D.p.o.s.s.s.PaL.P.s.taI.D.l.w.k.j.l.k.g.T.j.V.k.kaM.k",
"aM.l.k.j.k.k.gaB.j.j.g.e.g.i.i.g.i.i.j.j.K.K.k.waNaOaI.E.t.t.taP.o.s.paI.w.D.D.p.t.s.saL.u.u.u.s.6.t.D.l.l.j.jaMaQ.j.j.T.j.j.j.k",
".j.k.kaR.k.j.j.g.j.j.g.g.g.g.g.g.g.g.i.j.j.K.j.KaD.W.l.D.o.t.E.t.s.6.t.t.s.s.E.p.t.s.saL.u.u.P.s.t.taI.D.l.w.j.j.k.k.j.g.g.J.g.j",
".J.g.g.j.l.j.g.g.K.j.g.g.g.g.g.g.g.g.g.i#b.i.g.jaS.k.k.l.p.EaI.q.s.o.s.oaL.u.P.saL.u.uaTaTaT.P.s.t.v.l.L.w.k.k.j.j.j.i.g.g.e.e.e",
".I.I.e.e.j.l.g.e.g.j.g.g.g.g.g.g.e.e.g.g.i.g.g.jaC.K.k.w.l.N.D.q.o.s.s.s.PaL.u.PaL.uaL.uaUaTaVaV.t.r.D.laO.D.k.k.k.j.g.g.g.J.d.c",
".c.c.c.c.e.g.j.g.g.g.g.g.g.e.e.e.e.e.g.i.i.g.g.jaC.j.k.w.w.N.w.p.s.s.s.s.s.P.PaLaL.u.u.uaLaUaWaXaVaT.OaI.D.l.w.K.k.k.j.g.e.J.e.c",
".c.y.y.bQt.c.e.g.j.g.e.e.e.e.e.e.e.e.g.g.g.g.g.jaC.j.k.w.w.w.waI.s.s.s.t.saYaL.u.PaL.uaUaTaUaVaZaTaVa0a1.D.D.k.K.K.j.k.j.J.e.I.c",
"QtQtQtQtQtQt.b.e.g.g.e.e.e.e.e.e.e.e.e.g.g.g.g.jaC.j.H.w.H.w.N.D.t.s.6.t.s.m.maL.m.s.u.ua2a3aVaWa0aVa1a3aT.D.H.j.j.j.j.j.g.f.e.c",
".yQtQt.BQtQt.c.I.e.g.e.e.e.e.e.e.e.e.e.g.g.g.g.g#M.j.K.4.K.H.w.N.p.s.t.o.s.PaYaL.m.maLaL.ua2a1a1a0aVaVaVa0.l.V.j.j.j.g.f.e.e.I.c",
".cQt.BQt.B.a.c.y.e.e.e.c.I.I.e.e.e.e.e.g.g.g.f.g.h.j.j.j.K.K.K.w.w.D.D.taI.p.maYaL.m.saLaLaYa4aVa3a3a1a1a3a5.l.k.K.j.f.I.d.c.c.e"};
