/* XPM */
static char *d12126a54cdf490cb8671ca538f17a78cJK8ZOjL6OjqKhSV[] = {
/* columns rows colors chars-per-pixel */
"64 64 2 1 ",
"  c None",
". c #990030",
/* pixels */
"                          ...........                           ",
"                      ....           ....                       ",
"                   ...                   ...                    ",
"                 ..                         ..                  ",
"               ..                             ..                ",
"              .                                 .               ",
"             .                                   .              ",
"           ..                                     ..            ",
"          .                                         .           ",
"         .                                           .          ",
"        .                                             .         ",
"       .                                               .        ",
"       .                                               .        ",
"      .                                                 .       ",
"     .                                                   .      ",
"    .                                                     .     ",
"    .                                                     .     ",
"   .                                                       .    ",
"   .                       .........                       .    ",
"  .                         .      ..                       .   ",
"  .                         .       .                       .   ",
"  .                         .       .                       .   ",
" .                          .       .                        .  ",
" .                          .      ..                        .  ",
" .                         ...    ..                         .  ",
" .                          ......                           .  ",
".                           .                                 . ",
".                           .                                 . ",
".                           .                                 . ",
".                           .                                 . ",
".                           .                                 . ",
".                           .                                 . ",
".                           .                                 . ",
".                           .                                 . ",
".                           .                                 . ",
".                           .                                 . ",
".                           .                                 . ",
" .                          .                                .  ",
" .                          .                                .  ",
" .                          .                                .  ",
" .                                                           .  ",
"  .                                                         .   ",
"  .                                                         .   ",
"  .                                                         .   ",
"   .                                                       .    ",
"   .                                                       .    ",
"    .                                                     .     ",
"    .                                                     .     ",
"     .                                                   .      ",
"      .                                                 .       ",
"       .                                               .        ",
"       .                                               .        ",
"        .                                             .         ",
"         .                                           .          ",
"          .                                         .           ",
"           ..                                     ..            ",
"             .                                   .              ",
"              .                                 .               ",
"               ..                             ..                ",
"                 ..                         ..                  ",
"                   ...                   ...                    ",
"                      ....           ....                       ",
"                          ...........                           ",
"                                                                "
};
