/* XPM */
static char *dummy[]={
"64 64 328 2",
".W c #000000",
"#p c #008e98",
"#i c #00b9c6",
"#v c #0c0c0c",
"#f c #0d0d0d",
"cz c #0e0d0d",
"cv c #0f0d0d",
"#y c #131313",
"b9 c #424033",
"cb c #424133",
"cd c #424134",
"cc c #434134",
"b8 c #444234",
"cl c #444235",
"cw c #454335",
"ck c #4b4939",
"b0 c #4b493a",
"#2 c #4d0104",
"cA c #524f3f",
"## c #540003",
"bI c #58584d",
"bt c #59584d",
"bo c #59584e",
"a5 c #59594e",
"a4 c #59594f",
"ba c #5a594e",
"aN c #5a594f",
"aH c #5a5a4f",
"aG c #5b594f",
"#P c #5b5a4f",
"#W c #5b5a50",
"#Z c #5b5b50",
"#9 c #5b5b51",
"aM c #5c5b50",
"#Q c #5c5b51",
"bJ c #5c5c51",
"aL c #5d5c51",
"cs c #5d5c52",
"aT c #5d5d51",
"aB c #5d5d52",
"bn c #5e5d51",
"#5 c #5e5d52",
"bs c #5e5e52",
"bb c #5e5e53",
"#Y c #5f5e53",
"bE c #5f5f53",
"ct c #5f5f54",
"#J c #605d4a",
"#R c #605f54",
"bW c #606054",
"cx c #615f54",
"cB c #616054",
"bP c #616055",
"bv c #616154",
"cH c #616155",
"av c #626156",
"aA c #626257",
"ce c #63604c",
"c. c #63604d",
"#X c #636256",
"c2 c #636257",
"bx c #636357",
"#K c #64614d",
"cp c #64614e",
"#S c #646358",
"bc c #646458",
"b7 c #65624e",
"#I c #65624f",
"cn c #656559",
"cj c #66634f",
"b4 c #666559",
"as c #66655a",
"bu c #666659",
"#L c #67644f",
"#H c #676450",
"cr c #67665b",
"ao c #67675a",
"#G c #686550",
"#A c #686551",
"bw c #68675b",
"c# c #696550",
"#x c #696651",
"#u c #696652",
"cf c #696752",
"bS c #69685c",
"#T c #69695c",
"cg c #6a6651",
"#t c #6a6652",
"#o c #6a6752",
"d# c #6a695d",
"#F c #6b6752",
"#M c #6b6852",
".h c #6b6853",
"aV c #6b6a5d",
"a# c #6b6a5e",
"#V c #6c6853",
"c1 c #6c6953",
"cZ c #6c6954",
"ap c #6c6b5f",
"cX c #6d6954",
"cE c #6d6a54",
"cT c #6d6a55",
"cM c #6e6a54",
"cJ c #6e6a55",
"a6 c #6e6d61",
"#q c #6e6e6e",
"c3 c #6f6d61",
"be c #6f6e60",
"#0 c #706f62",
"aC c #707062",
"#d c #7095af",
"aq c #716f63",
"bZ c #717062",
"aW c #717063",
"au c #717064",
"cI c #717164",
"cS c #727164",
"cu c #727264",
"b2 c #737264",
"ca c #737265",
"bd c #737365",
"bB c #747365",
"#U c #747366",
"bQ c #747467",
"bO c #757366",
"#4 c #757567",
"aD c #767567",
"br c #767568",
"b3 c #777668",
"ch c #777669",
"#1 c #777768",
"bR c #787668",
"a7 c #787768",
"bY c #797869",
"ae c #79786a",
"aa c #79786b",
"bq c #79796a",
"aU c #7a796b",
"aI c #7b7a6c",
"cD c #7b7a6d",
"aP c #7b7b6c",
"aE c #7c7b6d",
"bV c #7d7b6c",
"bf c #7d7c6d",
"bF c #7d7c6e",
"#D c #7d7d7d",
"ac c #7f7e6f",
"ci c #7f7e70",
"bk c #7f7e72",
"b# c #7f7f72",
"cy c #807e6f",
"cO c #807e70",
"by c #807f6f",
"aO c #807f70",
"aY c #807f71",
"a1 c #807f72",
"a2 c #807f73",
"cY c #817e70",
"cG c #817f70",
"bp c #818071",
"aQ c #818072",
"aS c #818073",
"bK c #828171",
"aF c #828172",
"bz c #828173",
"az c #828174",
"cP c #838172",
"bg c #838271",
"bj c #838274",
"af c #848373",
"b1 c #848374",
"bi c #848375",
"co c #858374",
"#8 c #858474",
"ar c #858475",
"ab c #868575",
"bl c #868576",
"b. c #868677",
"cK c #878576",
"aw c #878675",
"ah c #878676",
"bU c #888676",
"aK c #888678",
"ai c #888776",
"aJ c #888777",
"#6 c #888778",
"aZ c #898776",
"bG c #898777",
"an c #898779",
"c8 c #89877b",
"#O c #898877",
"aX c #898878",
"c7 c #89887b",
"a0 c #8a8877",
"bN c #8a8878",
"ad c #8a8879",
"at c #8a8978",
"#7 c #8a8979",
"bM c #8a8a79",
"bC c #8b8979",
"ax c #8b8a79",
"a8 c #8b8a7a",
"ay c #8c8a79",
"bD c #8c8a7a",
"dc c #8c8a7c",
"bH c #8c8b79",
"aj c #8c8b7a",
"ak c #8c8b7b",
".S c #8d8a7c",
"bA c #8d8b7a",
"bh c #8d8b7b",
"#e c #8d8b7c",
".G c #8d8b7d",
"#r c #8d8c7b",
"#s c #8d8c7c",
".7 c #8d8c7d",
"bL c #8d8d7c",
"#. c #8d8d8d",
".R c #8e8b7d",
"a9 c #8e8c7b",
"#C c #8e8c7c",
".C c #8e8c7d",
".v c #8e8c7e",
"b6 c #8e8d7b",
"#n c #8e8d7c",
".U c #8e8d7d",
".r c #8e8d7e",
".O c #8e8d7f",
"ag c #8e8e8e",
"aR c #8f8d7c",
"#m c #8f8d7d",
".F c #8f8d7e",
"bm c #8f8e7c",
".0 c #8f8e7d",
".4 c #8f8e7e",
".m c #8f8e7f",
"bT c #8f8f7e",
"am c #908e7d",
".Q c #908e7e",
"dd c #908e7f",
"da c #908e80",
"al c #908f7d",
".A c #908f7e",
".9 c #908f7f",
"bX c #90907f",
"c6 c #918e80",
".3 c #918f7e",
".# c #918f7f",
"c9 c #918f80",
"#z c #91907e",
".a c #91907f",
".5 c #919080",
"b5 c #919180",
"db c #928f80",
".z c #92907f",
".B c #929080",
"#l c #92917f",
"Qt c #929180",
".b c #929181",
".2 c #939180",
".y c #939181",
"a. c #939280",
".c c #939281",
"cq c #939282",
"#3 c #949280",
".d c #949281",
".I c #949282",
"#c c #949381",
".e c #949382",
"cm c #949383",
"a3 c #959281",
"#B c #959381",
".f c #959382",
".J c #959383",
".x c #959482",
".g c #959483",
"cC c #959484",
"#a c #959584",
"#w c #969382",
"#N c #969383",
"#j c #969482",
".i c #969483",
".T c #969484",
"#h c #969583",
".j c #969584",
"cL c #969585",
"cF c #969685",
"#k c #979483",
"#b c #979583",
".K c #979584",
".V c #979585",
".H c #979684",
".k c #979685",
"cW c #979686",
".Z c #989584",
".6 c #989684",
".w c #989685",
"cR c #989686",
".L c #989785",
".l c #989786",
"df c #989887",
".X c #989898",
"#g c #999684",
".Y c #999685",
".N c #999785",
".D c #999786",
"cN c #999886",
"cU c #999887",
".1 c #9a9785",
".E c #9a9786",
".p c #9a9886",
".t c #9a9887",
".8 c #9a9987",
"cV c #9a9988",
".q c #9b9886",
".o c #9b9887",
".s c #9b9987",
".P c #9b9988",
".n c #9c9987",
"cQ c #9c9988",
".u c #9c9a88",
"de c #9c9a89",
"c4 c #9d9a88",
"c0 c #9d9a89",
"c5 c #9d9b89",
"d. c #9e9b89",
".M c #bfbfbf",
"#E c #cacaca",
"Qt.#.#.#.#.a.a.aQt.b.c.c.c.c.c.c.c.d.e.f.g.g.g.f.h.g.g.i.j.j.j.j.k.k.l.l.l.l.l.m.n.m.m.o.p.q.r.s.n.m.p.t.u.v.w.k.i.i.x.d.y.c.c.d",
".z.a.#.#.A.a.a.a.BQtQt.c.c.c.c.c.c.c.c.e.g.g.g.g.h.g.g.j.j.j.j.j.k.k.w.l.l.l.w.w.m.n.r.C.D.E.F.o.o.v.p.p.o.G.v.H.j.i.g.I.y.y.y.y",
".B.B.#.A.A.a.a.a.BQtQt.c.c.c.c.c.c.c.c.c.J.g.g.g.h.i.i.j.j.j.j.j.K.K.k.l.L.M.M.M.M.q.N.C.v.E.p.r.D.D.O.P.s.p.r.k.K.i.i.f.c.c.y.y",
".B.B.a.#.A.Q.A.aQtQtQtQt.c.c.c.c.c.c.c.c.e.f.g.g.h.g.g.g.g.j.j.j.j.k.k.l.w.k.M.w.M.M.M.M.v.E.N.C.R.N.v.m.s.p.C.S.T.f.i.i.I.d.d.d",
"Qt.B.a.A.Q.A.U.AQtQtQtQt.c.c.c.c.c.c.c.c.e.e.e.f.h.g.g.g.g.j.j.j.j.k.k.V.k.k.W.w.w.w.X.M.M.R.R.Y.G.N.N.p.t.o.t.Z.i.x.x.f.d.c.c.I",
".a.A.#.#.A.#.0.AQtQtQtQt.c.c.b.c.c.c.c.c.d.e.e.e.h.g.g.g.g.j.j.j.j.j.j.j.k.w.W.w.w.w.G.X.M.M.G.w.w.C.N.E.E.t.p.1.w.i.f.x.d.c.c.2",
".a.#.A.A.A.3.4.4.5QtQt.B.c.cQt.c.c.c.c.c.c.e.e.e.h.g.g.g.g.j.j.j.j.j.j.j.k.w.W.w.k.K.K.K.X.M.H.6.w.G.7.1.8.s.p.E.Y.j.i.i.f.d.2.z",
".a.a.#.Q.0.A.A.U.9QtQt.a.2.yQt.c.c.c.c.c.c.e.e.e#.#.##.g.j.j.j.j#a.j.K.k.j.H.W.H.K.K.K.K.K.M.X.K.6.6.R.D.E.o.p.D.N.Y#b.K.f#c.y.a",
".a.#.3.A.0.Q.A.U.AQt.a.aQt.yQtQt.y.c.y.c.c.c.I.e##.X.X##.X.g.i.j.j.j.X#..j.j.W.K.K.K.K.K.X.X.X#d.X.X#e.G.N.D.D.N.N.Y.w.w#b.f.dQt",
".B.#.9.A.Q.0.4.0.0.a.a.AQtQtQtQtQt.c.cQt.c.c.e.e#f##.X.X##.X.X.j#f##.X#..K.W.j.K.K.j.j.K.X.K.X#d.K.X.K.K.6.H.6.K.Z.w.w#g.K.f.cQt",
"Qt.B.#.A.0.0.0.0.0.a.a.9.aQtQtQtQtQt.yQt.c.c.c.c#f#f######.X.X.X##.X#..j.j.W#h.j.j.i.K.X.X.K.X#d#i.K.K#h.K.K.H#b#b.K.H.6.6#j.2.B",
".z.a.5.3.A.0.0.0.0.A.#.A.9QtQtQt.B.aQtQtQtQt.2.c#f#f#f#f####.X.X.X.X#..H.K.W.K.K.K#h.X.X.i#h.X.X#d.i.K#h#h.K.H.i#k.i.i.x.i.K.y#l",
".BQt.zQt.A.0.0#m#n.Q.3.0.Q.aQt.B.a.a.aQt.B.2Qt.c#o#f#f#f#f#p###q.X#..g.K.i.W.i.i.K.K.i.i#b#h.X.X#d.i#k.K.i.K.K#j.i#j.f.f.f.i.g.2",
".d.z.2.2.9.A.0.U#n#m.4.0.0.9Qt.a.aQtQtQtQt#o.c.c#o#f#f#f#f#f##.X#q#q.f.i.g.W.g.i.i.i.i.i.i#h#h.X#d#d#b.K.i.i#h.i.f.f.f.f.f.f.f.f",
".f.d.cQt.a.a.A.U#n#r.0.0#s.4.a.a.A.a.B.5#t#u#o#v##.X.X#f#f#f#f##.X.c.e.f.i.W.g.f.f.x.x.i.i#h.i#b#i#d#i#k#j#w.i.i.f.f.f.f.f.f.f.f",
".x.f.dQtQt.#.Q.0#n#r#n#n#n.0.9.A.A.a.a.a#x#x#v#v#y##.X.X.X#f#f#f###z.z.c#q.W#q.f.f.f.x.x.i.i.i.i#d#d#d.i.x.f.f#w.f.f.f.f.f.x.f.f",
".f.x.f.d.B.a.3.0.U#n#s#n#n#n.0.A.A.A.A.9.A#A#v#y#y#y####.X.X.X#f.z.X.X###q#q#q#q#B#B#c#B.x.i.i.i#q#q#q.x.f#B#c#B.f.e#c#B.f.i.i.f",
".f.f.f.f.d.2.A.0.0.U#n#C#r#s#n.0.4.0.4.A.4.4#v#y#v#y#y#y####.X.X.X.X###y###D#q#q#E#E#E#E#E#######D#q#q#E#E#E#E#E#E#E#E#E#E#f#f#i",
".f.f.f.f#F#o#x#G#G#G#H#I#J#K#L#G#G#G#A#x#x#A#v#y#v#v#y#y#y#y##.X.X###y#y###D#D#q.X.X.X#####f#f#f###D#q#F#F#M.d.d.d.d.d.d.x#N.f.f",
".h.h.h.h#F.dQt.A#n#n#n#O#P#P#Q#R#S#T#U.A.A.4###y#y#v#v#y#v#v#y#####y#y###D#D#D.X.X#####f#f#f#f#f###D#q.d.d#F#F#F#F#F#F#F#V#V#V.h",
".f.f.f.f#c.dQt#z.0#n#s#n#P#W#X#Y#Z#Z#Z#0#1###f###2#y#y#y#y#y#v#v#y#y#y#y.X.W.X#####f#f#f#f#f#f#f#d#d#d.2.z.2.d#3.d.c.d.d.f.f.i.f",
".f.e.f.f.d.y.z.A#n#r#r#n#4#5#6.0#s#7#8#9#9#f#f#f#f##.X#y#y#y#y#y#y#y#f#f##.W###f#f#f#f#f#f#f#f#f#i#d#iQt.z#l.2.ca..d.d.c.c#c.x#j",
".x#c.d#c.c.2.z.a#n#r#s#n#na#aa.U.0.4.0abac#f###f#f##.X.X#y#y.X###f#f#f#f#f.W#f#f#f#f#f#f#f#f.3.X#d#d.z.a.z.z.2.2.2.2.2ad.ca.#B#j",
".f.f.d.cQt.2Qt.#.U#s#s#n#nae#Saf.0.0.0.U.U#f#####f#f##.Xag.X###fahai#f#f#f.W#f#fajakal.Aam.Aam.X#d.z.3.a.z.z.2.2.2.2anana.#3.d.i",
".f.faoapaq.3.#.z.Aar#5as#natauav.0.0.0.U.U#f##.X###f##.Xag.X###fahahawawah.Wataxajay.X.X.0am.0.X#d.3.3.A.3.z.2.2.2anaz.2.2a..d.g",
"#c.d#naAaBaCaDaEaF#WaGaHaj#s.U#ZaI.4.0.0.0#f#f##.X##.X.Xag.X###fahahawawab.Wat#OaJ#7ax.X.X#n.X#d#i.0.3.3.A.3.z.zaKazan.2a.a..d#w",
".2.da.#0#5aLaM#P#P#PaNaO#r#r#naP#Q#s.0.4.4#f#f#f##.X.Xag.X###fahaJaJahabab.W#7at#OaQat.X.Xaj.X#daR.Mam.Aalam.3aSaS.z.2.c.d.d.d#B",
"#lQtQtaEaTaLaM#PaNaNaNaNaU#n#n.0aVaWaX.4.4.0#f#p#f##.Xag.X###p#OaXataiababab.WatahaYaZa0.X.X.X#d#naR.0.0.Aama1a2.A.A.zQt.2.da.a3",
"#l.z.aabaM#Q#Z#Pa4a5aN#Pa6#r#nacav#Za7.0.U.0#f###f##.Xag.X.X###6a8axaJaJahah.WaJahawai#O#O.M.Xa8a9#C#r#nb.b#a1alal.Aam.z.2.c.2.2",
".3am.0ay#PaG#PaNbaaNa5a5#X#raObb#9#Zbcac.0#n#f####.X.Xag.X.X.XbdaJax#7#OaDbe.WaUbfbgab#O#O.Matax.Mbhbibjbkblal.0bmam.0.#.z.2Qt#l",
".0#n#n#rbna5a5aNa4aNa5bo#Wbpa5aN#Z#Z#9#Ybqbr#f##.X.X.Xag.X.X##aN#Wbsbs#Rbt#Y.WbubvaLaMaM.M.Mataxa8.Xajbjbi.0am.0#m.0.0.A.3.a.z.z",
"a9#rajajbwa5a5a5a4a4a5boa4a5a5aN#W#Z#Q#Q#Q#Q#f#f##.X.X.Xag.X###fbxak#7#8byaF.WaXai#O#O.M.M#OaXaxbzazaza8aj#r#nbmaRaRaRaRamal.3am",
"#r#r#rbAbBa5bobtboboboa4aNaNa4aN#P#Z#Z#Q#Q###f#f#f##.X.Xag.X.X##aM.U#n#najaj.M#7.M.M.M.MaJataXbCbzaxaxaxbDajaj#sa9#ra9aR.0am.A#m",
"bA#rbAajaca5btbtboboa5boboa4a5a5#P#P#P#9#Q#f#f#f#f##.X.Xag.X.X##bEbF#r.4#n.M.M.M.MahahbGaJaiatat#7axaxaxbHajajbA#n#ra9a9#na9a9#n",
"#rayajajaibtbIboboa5a5btboa5a5btaNbJ#RbJ#Q#f#f#f#f#f##.X.X.X###fap#ZbK.A.0bL#n#rbMaJaXaiaiai#OatbNataxaxajajajbDaka9#n#n#n#n#nbh",
"#rbhaxajakbObtboboa5a5bobobta5boaNbP.U.U#7#f#f#f#f#f#f##.X.X###f###QbQ.A.A.0.U#nak#7aXaiaiaJbNatat#7bCaxaxaxajajaja9aRaRaR.0aRa9",
"#na9#r#r#rakbRaTa5a5a5a5boboa5a4a4aN#n.A#f#f#f#f#####f##.X###f##.XagbS.A.AbT.0#m#sak#7#ObUaJat#OatbNaxaxaxbDajbAaj#naRaRaR.0amam",
"am.0#n#n#sakaxbV#Xa5a5a5bobobta4aN#P#O.4#f#f#f##.X.X#f#f###f##.X.XagbW.AbX.A.A.0#n#sak#7#OaJaXbNaX#OataxbDbDajajajbh#n#naR#mam.A",
"alam.0.0.0ajajajbYa5a4a4a5a5btaNa5aNbZaX#f#f#p##.Xag#f#f#f#f##.X.X.Xag.UQt.5.9.A.0#n#n#sa8aXaJaXat#OaXataxaja8ajajaja9#n.0.0am.3",
"alam.0.0.Aa9ajajbl#0aNa4a4a4a5aNaN#P#P#f#f#f##.X.Xagb0#f#f#f#f##.X.Xagb1QtQt.a.9.9.Q.0.U#na8axbC#O#OaJ#Oajaja8aj#rbh#naR.0amam.3",
".zam.0amam#n#rajajakb2aNaNa4a5#P#P#W#P#f#f#f##.X.Xagb3b4#f#f#f##.X.Xag.7b5Qt.a.A.aQt.A.4.0#ra8atatatat#7axajajbD#r#Ca9bmam.Aam.A",
".z#z.A.Q.A.0aRb6#r#r#s#5aNaNaN#W#W#Z#Z#f#f##.X.X.Xagb7b8#f#f#f#p##.X.XagQtQtQt.a.9Qt.a.a.A.U#rajaXatbCajaxajajaj#n.0#m#m#mamamam",
"#x#x#x#x#x#x#G#G#G#G#Gb0b9b9#Z#W#Z#9#Z#f#f##.X.Xag.2.cc.aB#f#f#f##.X.Xag.aQt.cQt.aQtQt.a.a.4.0#najax#G#L#L#L#L#L#G#xc##G#G#Gc##x",
".z.z.2.z.z.a.3.A.0.U.Uca#Pcbcbcccdcc#f#f#f##.X.Xag#G#o#oce#o#f#f#f##.X.Xagcf#o#o#o#o#o#o#o#x#x#x#G#G#La8bD#r#r#r.0.0.A.0.0.0.z.c",
".2#o#oQtcg.#.3#x#x.A.0#7ch#P#Zcc#QaL#f#f#p##.X.Xagci.d#c.e.c#f#f#f##.X.XagQt.b.b.BQt.cQtQtQtQt.eQt.9.0.U#L#L#L#n.0.0#x.a.3cg#o.d",
"#c#o#o.2#t#x.a.a#x.9.4cjck#P#ZccaL#f#f#f##.X.Xagclca.e.h.h.e.e#f#f#f##.X.Xag#o.cQtQtQt.cQt#o#o#ocm.cQt.A.0#G.A.0.A.A#x#x.a#o#B.f",
".x#3a.a3Qt.3.z.z.A.a.A.acc#Q#Qb8###f#f#f##.X.Xagclcncocp.h.f.g.i#f#f#f####ag.h.h.c.c.c.cQtQt#o#o.g.e.c.5.ccq.c.y.cQt.a.a.zQt.2.i",
".Z.f.d.xQt.a.a#l.3.3.A.acraLcsb8ag###f#f##.XagctclbEctctbC.Q.g.g.i#f#f#f#p##.g.x.x.d.ecqQt.aQt.ccq.e.e.c.e.j.g.d.g.d.2Qt.2.c.2.c",
".f.e.d.ecqQtQtQtQt.a.a.acuaLaBb8ag###f#fcv#####Rcwct#R#R#RcxaR.K###f#f#f#f#f.g#h.g.e.f.J.I.5Qt.I.gcm.g.e.g.j#h.g.c.e.d.c.c.c.d.e",
".g.i.e.e.g.c.cQt.bQt.aQtcyaB#5ag.X.X###f#fcz.g.BcA#RcxbPcxcBbP#6ag###f#f#f#f.j.icC.e.e.j.gcq.c.e.g.g.g.j.g.g.g.gQt.e.f#c.c.e.f.f",
".i.j#h.g.i.e.c.c.e.bQt.caj#Y#Yag.X.X###f#f#f.k.w#FcDbPbPbPbPbPbPag.X###f#f.w.H.K.K.g.g.i.H.g.e.g.j.g.g.j.k.j.j.j.g.e.j.j.f.g.i#h",
".H.j.g.j.j.g.c.c.g.e.c.e.c#Y#Yag.X.X###f#f.l.w.lcEcF#CcGavcHcHavag.X.X###f.D.D.L.L.w.j.j.H.H.i.g.j.j.g.j.k.j.j.j.j.j.j.k.k.j.j.j",
".k.k.j.j.j.g.e.c.j.g.e.e.dcIag.X.X###f#fbP.K.w.NcJ.D.D.DcKaOavavag.X.X###f.D.E.p.t.s.t.D.w.L.k.j.H.kcL.k.k.k.k.j.V.l.k.k.l.k.j.k",
".l.L.j.K.j.j.e.ecC.jcm.e.e.Jag.X.X#p#f#fcB#m.N.DcMcN.l.p.t.pcOavag.X.X#p#f.D.p.t.s.s.s.s.s.p.D.l.L.l.l.l.l.l.k.j#a.k.w.l.l.l.k.k",
".l.k.j.K.k.k.g.e.g.j.g.e.eag.X.X###f#f#RcxaF.w.lcM.p.D.E.t.t.tcPaUag###f#f#f.p.o.s.s.s.PcQ.P.s.tcN.D.l.w.k.j.l.k.g.T.j.V.k.kcR.k",
"cR.l.k.j.k.k.gcm.j.j.g.e.gag.X###f#f#R#RcxcS.k.wcTcUcN.E.t.t.tcV.oag###f#f#f.D.p.t.s.scQ.u.u.u.s.8.t.D.l.l.j.jcRcF.j.j.T.j.j.j.k",
".j.k.kcW.k.j.j.g.j.j.g.g.g#####f#f#f#R#Ras.Q.j.KcX.Y.l.D.o.t.E.t.s###f#f#f#fcY.p.t.s.scQ.u.u.P.s.t.tcN.D.l.w.j.j.k.k.j.g.g.J.g.j",
".J.g.g.j.l.j.g.g.K.j.g.g.g#f#f#f#fctct#R#R.i.g.jcZ.k.k.l.p.EcN.q.s.o#f#f#f#f#fb3cQ.u.uc0c0c0.P.s.t.v.l.L.w.k.k.j.j.j.i.g.g.e.e.e",
".I.I.e.e.j.l.g.e.g.j.g.g.g#f#f#f#f#Yctct#R.U.g.jc1.K.k.w.l.N.D.q.o.s#f#f#f#f#fc2c3.ucQ.uc4c0c5c5.t.r.D.lcU.D.k.k.k.j.g.g.g.J.d.c",
".c.c.c.c.e.g.j.g.g.g.g.g.g#f#f######ct#R#RaF.g.jc1.j.k.w.w.N.w.p.s.s#f#f#f#####.#.bS.u.ucQc4c6c7c5c0.OcN.D.l.w.K.k.k.j.g.e.J.e.c",
".c.y.y.bQt.c.e.g.j.g.e.e#f#####.#.#.#.ctctca.9.jc1.j.k.w.w.w.wcN.s.s.s#f###.#.agag#.#.c4c0c4c5c8c0c5c9d..D.D.k.K.K.j.k.j.J.e.I.c",
"QtQtQtQtQtQt.b.e.g.g.e.e.X.X.X.X.X#.#.#.#.ctd#.jc1.j.H.w.H.w.N.D.t.s.8##.X.X.X#.#.#.#.#.dadbc5c6c9c5d.dbc0.D.H.j.j.j.j.j.g.f.e.c",
".yQtQt.BQtQt.c.I.e.g.e.X.X.X.X.X.X.X.X.X#.#.#0.g#V.j.K.6.K.H.w.N.p.s.t.X.X.X.X.X.X#.#.#..udad.d.c9c5c5c5c9.l.V.j.j.j.g.f.e.e.I.c",
".cQt.BQt.B.a.c.y.e.e.e.c.X.X.X.e.e.X.X.X.X#..f.g.h.j.j.j.K.K.K.w.w.D.D.X.X.X.mdc.X.X.X#.cQdddec5dbdbd.d.dbdf.l.k.K.j.f.I.d.c.c.e"};
