/* XPM */
static char *_ee365aa6c7a42eab12edff33b152363hPN9jtFapEllYBtl[] = {
/* columns rows colors chars-per-pixel */
"32 32 170 2 ",
"   c #005500",
".  c #005D07",
"X  c #006A17",
"o  c #136413",
"O  c #015E2D",
"+  c #026C2F",
"@  c #206E3A",
"#  c #2A6B3D",
"$  c #007542",
"%  c #2D6D41",
"&  c #287E43",
"*  c #327F49",
"=  c #327343",
"-  c #3B7A54",
";  c #427041",
":  c #587840",
">  c #437C54",
",  c #577952",
"<  c #627E51",
"1  c #577763",
"2  c #507861",
"3  c #5D7862",
"4  c #5D6970",
"5  c #647D6A",
"6  c #616C73",
"7  c #6D787E",
"8  c #6D777D",
"9  c #56843C",
"0  c #468159",
"q  c #4B885C",
"w  c #4B8E60",
"e  c #538060",
"r  c #568A69",
"t  c #5C8567",
"y  c #4E9263",
"u  c #57976A",
"i  c #599B6C",
"p  c #68806E",
"a  c #638C6F",
"s  c #63906E",
"d  c #688675",
"f  c #6D927B",
"g  c #629571",
"h  c #769170",
"j  c #71967D",
"k  c #A88800",
"l  c #BB8E00",
"z  c #A28911",
"x  c #88832F",
"c  c #9B8C3A",
"v  c #B3932A",
"b  c #CD9000",
"n  c #D09A00",
"m  c #DC9F00",
"M  c #C39F1E",
"N  c #D3A100",
"B  c #F0A600",
"V  c #ECA413",
"C  c #CCA120",
"Z  c #8B9159",
"A  c #BB9E44",
"S  c #979F6A",
"D  c #C6A55A",
"F  c #D7A95B",
"G  c #CEAE62",
"H  c #D2B065",
"J  c #6C7983",
"K  c #717D84",
"L  c #747F88",
"P  c #7B858C",
"I  c #7E888E",
"U  c #738188",
"Y  c #799A87",
"T  c #7EA485",
"R  c #828E96",
"E  c #849199",
"W  c #8A969C",
"Q  c #969D9F",
"!  c #85A493",
"~  c #8AAD92",
"^  c #929FA6",
"/  c #929FA8",
"(  c #93A3A7",
")  c #9AA3A5",
"_  c #9CADA4",
"`  c #95A2AB",
"'  c #9AA5AD",
"]  c #9EA8AE",
"[  c #99B6A0",
"{  c #9FB6AC",
"}  c #9EABB5",
"|  c #A1A5A6",
" . c #A0AFA3",
".. c #A2A8AC",
"X. c #A0B0A3",
"o. c #A8BEAD",
"O. c #A7B5A8",
"+. c #A0ADB6",
"@. c #A4B0B7",
"#. c #A2BBB3",
"$. c #A5B3BB",
"%. c #A9B5BD",
"&. c #ACB9B4",
"*. c #B4BABD",
"=. c #AEC2B3",
"-. c #B2C6B7",
";. c #B9C2BE",
":. c #C9C7B1",
">. c #CECAB4",
",. c #C5C9B9",
"<. c #D2CEB8",
"1. c #D5D0BB",
"2. c #ABB7C1",
"3. c #ADBBC3",
"4. c #B1BDC4",
"5. c #B3BFC9",
"6. c #AEC0C2",
"7. c #B7C6C5",
"8. c #BBC2C4",
"9. c #BDCDC3",
"0. c #B5C2CC",
"q. c #BBC5CC",
"w. c #BCCBCD",
"e. c #B6C5D0",
"r. c #B9C6D0",
"t. c #BCCAD3",
"y. c #BECCD8",
"u. c #C2C9CD",
"i. c #C4C9CC",
"p. c #C7D8CF",
"a. c #C1D0CB",
"s. c #C4CED6",
"d. c #CACFD1",
"f. c #C3CFD8",
"g. c #C8D4D5",
"h. c #C3D2DD",
"j. c #CAD4DB",
"k. c #CDDBD0",
"l. c #D3D7D5",
"z. c #D4DAD5",
"x. c #D4D7DA",
"c. c #D5DADC",
"v. c #DBDDDE",
"b. c #D7E4DB",
"n. c #C6D5E0",
"m. c #C9D7E2",
"M. c #CBDAE4",
"N. c #C6DAE1",
"B. c #D2DCE3",
"V. c #D2DEE9",
"C. c #D9DEE1",
"Z. c #D3E0E7",
"A. c #DDE2E4",
"S. c #D5E2EB",
"D. c #DAE5ED",
"F. c #DBE7F1",
"G. c #DEE9F3",
"H. c #D6E4F0",
"J. c #E4E6E7",
"K. c #E6E7E8",
"L. c #E2E8ED",
"P. c #EAECEC",
"I. c #E3ECF3",
"U. c #EAEEF3",
"Y. c #ECF2F6",
"T. c #EBF1F9",
"R. c #F4F5F6",
"E. c #F3F6FC",
"W. c #F6F8F9",
"Q. c #FFFFFF",
/* pixels */
"Q.Q.Q.Q.Q.Q.Q.Q.Q.Q.Q.Q.Q.Q.Q.Q.Q.Q.Q.Q.Q.Q.Q.Q.Q.Q.Q.Q.Q.O.o b.",
"Q.Q.Q.Q.Q.Q.Q.Q.Q.Q.Q.Q.Q.Q.Q.Q.Q.Q.Q.Q.Q.Q.Q.Q.Q.Q.Q.Q.8.  > - ",
"Q.Q.Q.Q.Q.Q.Q.Q.Q.Q.Q.Q.Q.Q.Q.Q.Q.Q.Q.Q.Q.Q.Q.Q.Q.Q.Q.R.q.Y e . ",
"Q.Q.Q.Q.Q.Q.Q.Q.Q.Q.Q.Q.Q.Q.Q.Q.Q.Q.Q.Q.Q.Q.Q.Q.Q.R.c.t.A.g.d O ",
"Q.Q.Q.Q.Q.Q.Q.Q.Q.Q.Q.Q.Q.Q.Q.Q.Q.Q.Q.Q.Q.Q.W.A.8.%.3.M.B.B.x.P.",
"Q.Q.Q.Q.Q.Q.Q.Q.Q.Q.Q.Q.Q.Q.Q.Q.Q.Q.Q.W.c.8.W $.%.0.t.y.%.u.Q.Q.",
"Q.Q.Q.Q.Q.Q.Q.Q.Q.Q.Q.Q.Q.Q.Q.Q.Q.R.*.3.+.2.4.3.4.r.0.$.E P.Q.Q.",
"Q.Q.Q.Q.Q.Q.Q.Q.Q.Q.Q.Q.Q.Q.Q.Q.W.%.C.S.V.0.3.2.q.5.%.^ ) Q.Q.Q.",
"Q.Q.Q.Q.Q.Q.Q.Q.Q.Q.Q.Q.Q.Q.Q.W._ _ Y.I.h.r.0.r.5.%.' J x.Q.Q.Q.",
"Q.Q.Q.Q.Q.Q.Q.Q.Q.Q.Q.Q.Q.Q.Q._ : Z :.Y.I.I.S.f.2.} W I R.Q.Q.Q.",
"Q.Q.Q.Q.Q.Q.Q.Q.Q.Q.Q.Q.Q.Q._ < l n D >.W.Q.T.h.@.` L Q Q.Q.Q.Q.",
"Q.Q.Q.Q.Q.Q.Q.Q.Q.Q.Q.Q.Q. .- x V B m G 1.W.E.n.%.` K v.Q.Q.Q.Q.",
"Q.Q.Q.Q.Q.Q.Q.Q.Q.Q.Q.Q. .t a Z k v C N H <.W.S.3.^ 6 R.Q.Q.Q.Q.",
"Q.Q.Q.Q.Q.Q.Q.Q.Q.Q.Q.X.= ! #.j X $ 9 M m F >.D.e.E ) Q.Q.Q.Q.Q.",
"Q.Q.Q.Q.Q.Q.Q.Q.Q.Q.;.a Y a.9.9.o.~ S A c b D O.%.P i.Q.Q.Q.Q.Q.",
"Q.Q.Q.Q.Q.Q.Q.Q.Q.c.4.! o.9.-.b.z.k.p.,.{ h z , d &.Q.Q.Q.Q.Q.Q.",
"Q.Q.Q.Q.Q.Q.Q.Q.K.s.j.6.Y s * T [ =.9.7.#.f ; 1 l.Q.Q.Q.Q.Q.Q.Q.",
"Q.Q.Q.Q.Q.Q.Q.R.u.f.Z.M.t.r & y u q a f j % 3 l.Q.Q.Q.Q.Q.Q.Q.Q.",
"Q.Q.Q.Q.Q.Q.W.q.j.B.M.S.T.g.g i i y + @ # 3 l.Q.Q.Q.Q.Q.Q.Q.Q.Q.",
"Q.Q.Q.Q.Q.Q.q.q.S.N.S.I.E.I.w.r q w 0 % 5 l.Q.Q.Q.Q.Q.Q.Q.Q.Q.Q.",
"Q.Q.Q.Q.R.*.3.B.h.S.I.R.I.I.F.3.r 0 # 5 l.Q.Q.Q.Q.Q.Q.Q.Q.Q.Q.Q.",
"Q.Q.P.*.] ` r.t.m.G.T.U.D.F.h.0.( 2 p l.Q.Q.Q.Q.Q.Q.Q.Q.Q.Q.Q.Q.",
"Q.K.W q.t.t.%.0.V.I.L.D.H.h.0.} E ) v.Q.Q.Q.Q.Q.Q.Q.Q.Q.Q.Q.Q.Q.",
"Q.) B.S.t.3.3.r.m.D.S.S.h.0.+.P ..R.Q.Q.Q.Q.Q.Q.Q.Q.Q.Q.Q.Q.Q.Q.",
"K.W C.L.n.m.B.M.t.q.y.q.3.' U *.R.Q.Q.Q.Q.Q.Q.Q.Q.Q.Q.Q.Q.Q.Q.Q.",
"d.E A.U.G.T.E.G.q.@.} } ` L d.Q.Q.Q.Q.Q.Q.Q.Q.Q.Q.Q.Q.Q.Q.Q.Q.Q.",
"A.f.A.B.V.R.W.D.0.} / E 7 v.Q.Q.Q.Q.Q.Q.Q.Q.Q.Q.Q.Q.Q.Q.Q.Q.Q.Q.",
"W.c.w.0.S.U.E.S.r.} W 4 v.Q.Q.Q.Q.Q.Q.Q.Q.Q.Q.Q.Q.Q.Q.Q.Q.Q.Q.Q.",
"Q.Q.A.%.s.j.F.F.q.` L | Q.Q.Q.Q.Q.Q.Q.Q.Q.Q.Q.Q.Q.Q.Q.Q.Q.Q.Q.Q.",
"Q.Q.| K ^ ( c.B.3.^ 8 i.Q.Q.Q.Q.Q.Q.Q.Q.Q.Q.Q.Q.Q.Q.Q.Q.Q.Q.Q.Q.",
"Q.Q.R.x.J.@.8.3.` P P Q.Q.Q.Q.Q.Q.Q.Q.Q.Q.Q.Q.Q.Q.Q.Q.Q.Q.Q.Q.Q.",
"Q.Q.Q.Q.Q.x.u.R W 8.Q.Q.Q.Q.Q.Q.Q.Q.Q.Q.Q.Q.Q.Q.Q.Q.Q.Q.Q.Q.Q.Q."
};
