/* XPM */
static char *afa98e6f56fd4172d49faa1b58d3606fEDHzCw3IPNC8XPUO[] = {
/* columns rows colors chars-per-pixel */
"64 64 2 1 ",
"  c None",
". c #00B7EF",
/* pixels */
"                                                                ",
"                                                                ",
"                                                                ",
"                                                                ",
"                     ......................                     ",
"                    ..                    ..                    ",
"                   ..                      ..                   ",
"                  ..                        ..                  ",
"                 ..                          ..                 ",
"                ..                            ..                ",
"               ..                              ..               ",
"              ..                                ..              ",
"             ..                                  ..             ",
"            ..                                    ..            ",
"           ..          .................           ..           ",
"          ..           .................            ..          ",
"         ..            ..                            ..         ",
"        ..             ..                             ..        ",
"       ..              ..                              ..       ",
"      ..               ..                               ..      ",
"     ..                ..                                ..     ",
"    ..                 ..                                 ..    ",
"    .                  ..                                  .    ",
"    .                  ..                                  .    ",
"    .                  ..                                  .    ",
"    .                  ..                                  .    ",
"    .                  ..                                  .    ",
"    .                  ..                                  .    ",
"    .                  ..                                  .    ",
"    .                  ..                                  .    ",
"    .                  ..................                  .    ",
"    .                  ..................                  .    ",
"    .                  ..                                  .    ",
"    .                  ..                                  .    ",
"    .                  ..                                  .    ",
"    .                  ..                                  .    ",
"    .                  ..                                  .    ",
"    .                  ..                                  .    ",
"    .                  ..                                  .    ",
"    .                  ..                                  .    ",
"    .                  ..                                  .    ",
"    .                  ..                                  .    ",
"    ..                 ..................                 ..    ",
"     ..                ..................                ..     ",
"      ..                                                ..      ",
"       ..                                              ..       ",
"        ..                                            ..        ",
"         ..                                          ..         ",
"          ..                                        ..          ",
"           ..                                      ..           ",
"            ..                                    ..            ",
"             ..                                  ..             ",
"              ..                                ..              ",
"               ..                              ..               ",
"                ..                            ..                ",
"                 ..                          ..                 ",
"                  ..                        ..                  ",
"                   ..                      ..                   ",
"                    ..                    ..                    ",
"                     ......................                     ",
"                                                                ",
"                                                                ",
"                                                                ",
"                                                                "
};
