/* XPM */
static char * left_xpm[] = {
"64 64 2 1",
" 	c None",
".	c #FFFFFF",
"                                                                ",
"                                                                ",
"                   ..                                           ",
"                 ....                                           ",
"                ....                                            ",
"              ......                                            ",
"            .......                                             ",
"           ..........          ..............                   ",
"         .....................................                  ",
"        ......................................                  ",
"        .......................                                 ",
"        ....                                                    ",
"        ......                                                  ",
"          .....                                                 ",
"           .....                                                ",
"              ...                                               ",
"              ....                                              ",
"               ...          ..                                  ",
"                         ..........                             ",
"                        ...........                             ",
"                        ............                            ",
"                        ...      ...                            ",
"                        ....     ...                            ",
"                         ...     ...                            ",
"                         .....  ....                            ",
"                          .........                             ",
"                           .......                              ",
"                           ......                               ",
"                          ......                                ",
"                  ..      ........                              ",
"                  ...    ...........                            ",
"                  ...  ..............                           ",
"                  ......... ...  ....                           ",
"                   .......  ...   ...                           ",
"                    .....   ...  ....                           ",
"                     ..     .... ...                            ",
"                             ... ...                            ",
"                             ... ...                            ",
"                            ....                                ",
"                           .....                                ",
"                         .......                                ",
"                         .......                                ",
"                        ........                                ",
"                       .... ...                                 ",
"                      ....  ...                                 ",
"                     ....   ...                                 ",
"                    ....   ....                                 ",
"                    ....   ....                                 ",
"                    ...    ....                                 ",
"                    ...    ....                                 ",
"                    ...     ...                                 ",
"                    ...     ....                                ",
"                    ...      ...                                ",
"                    ...      ....                               ",
"                   ...        ...                               ",
"                   ...        ....                              ",
"                   ...         ...                              ",
"                   ....        ....                             ",
"                   ....         ...                             ",
"                   ....         ...                             ",
"                   ....         ...                             ",
"                    ..                                          ",
"                                                                ",
"                                                                "};
