/* XPM */
static char * right_xpm[] = {
"64 64 2 1",
" 	c None",
".	c #FFFFFF",
"                                                                ",
"                                                                ",
"                                           ..                   ",
"                                           ....                 ",
"                                            ....                ",
"                                            ......              ",
"                                             .......            ",
"                   ..............          ..........           ",
"                  .....................................         ",
"                  ......................................        ",
"                                 .......................        ",
"                                                    ....        ",
"                                                  ......        ",
"                                                 .....          ",
"                                                .....           ",
"                                               ...              ",
"                                              ....              ",
"                                  ..          ...               ",
"                             ..........                         ",
"                             ...........                        ",
"                            ............                        ",
"                            ...      ...                        ",
"                            ...     ....                        ",
"                            ...     ...                         ",
"                            ....  .....                         ",
"                             .........                          ",
"                              .......                           ",
"                               ......                           ",
"                                ......                          ",
"                              ........      ..                  ",
"                            ...........    ...                  ",
"                           ..............  ...                  ",
"                           ....  ... .........                  ",
"                           ...   ...  .......                   ",
"                           ....  ...   .....                    ",
"                            ... ....     ..                     ",
"                            ... ...                             ",
"                            ... ...                             ",
"                                ....                            ",
"                                .....                           ",
"                                .......                         ",
"                                .......                         ",
"                                ........                        ",
"                                 ... ....                       ",
"                                 ...  ....                      ",
"                                 ...   ....                     ",
"                                 ....   ....                    ",
"                                 ....   ....                    ",
"                                 ....    ...                    ",
"                                 ....    ...                    ",
"                                 ...     ...                    ",
"                                ....     ...                    ",
"                                ...      ...                    ",
"                               ....      ...                    ",
"                               ...        ...                   ",
"                              ....        ...                   ",
"                              ...         ...                   ",
"                             ....        ....                   ",
"                             ...         ....                   ",
"                             ...         ....                   ",
"                             ...         ....                   ",
"                                          ..                    ",
"                                                                ",
"                                                                "};
