/* XPM */
static char *dummy[]={
"64 64 510 2",
"#r c #000000",
"a5 c #010000",
"cW c #010100",
"aw c #010101",
"an c #010202",
"e8 c #020100",
"ew c #020201",
"ah c #020202",
"aB c #020302",
"eb c #030302",
"ay c #030303",
"aA c #030404",
"a8 c #040100",
"dY c #040300",
"cI c #040301",
"az c #040303",
"bA c #040403",
"#3 c #040404",
"#X c #040504",
"#W c #040706",
"d8 c #050300",
"ee c #050301",
"ae c #050402",
"cQ c #050403",
"#C c #050504",
"bL c #050505",
"#8 c #050606",
"eZ c #060300",
"d9 c #060400",
"at c #060605",
"al c #060606",
"b0 c #060a09",
"b5 c #070603",
"#P c #070706",
"ap c #070707",
"#o c #070808",
"el c #080500",
"aW c #080603",
"aq c #080704",
"aM c #080707",
"ab c #080807",
"cA c #080808",
"d7 c #090500",
"bt c #090703",
"bc c #090704",
"ed c #090808",
"e0 c #090908",
"c4 c #090909",
"#m c #090b0b",
"dW c #0a0804",
"bP c #0a0806",
"dz c #0a0906",
"#I c #0a0a09",
"ci c #0a0a0a",
"#n c #0a0b0b",
"bI c #0a0f0e",
"bn c #0a100e",
"#B c #0a100f",
"c9 c #0b0700",
"et c #0b0803",
"bw c #0b0b0a",
"ai c #0b0b0b",
"#L c #0b1110",
"ba c #0b1211",
"cS c #0c0700",
"aH c #0c0701",
"b8 c #0c0b09",
"fA c #0c0b0a",
"dU c #0c0c0a",
"#q c #0c0c0b",
"ei c #0c0c0c",
"#l c #0c1412",
"dK c #0d0800",
"cj c #0d0902",
"c2 c #0d0d0d",
"dZ c #0e0900",
"cg c #0e0d0c",
"aL c #0e0e0d",
"dl c #0e0e0e",
"am c #0e1715",
"cH c #0f0f0f",
"#7 c #0f1816",
"#V c #0f1916",
"ct c #100f0d",
"fD c #10100f",
"eh c #101010",
"eu c #110b00",
"af c #111110",
"eE c #111111",
"#k c #111b18",
"ax c #111b19",
"#i c #111c19",
"a1 c #121110",
"bs c #121211",
"ak c #121212",
"aV c #121c1a",
"cF c #130d02",
"eS c #131211",
"e9 c #131311",
"bb c #131312",
"eX c #131313",
"ao c #131716",
"bZ c #131f1c",
"cf c #140e05",
"#Z c #141009",
"aS c #141414",
"#h c #14201d",
"dM c #150d00",
"es c #151515",
"bT c #160e01",
"aR c #161513",
"ev c #161515",
"cl c #161616",
"#Y c #171513",
"fP c #171614",
"#A c #171717",
"c8 c #180f00",
"de c #181714",
"#s c #181815",
"#p c #181816",
"eq c #181818",
"dC c #190f00",
"bQ c #191817",
"#Q c #191919",
"bz c #1a1001",
"dy c #1a1815",
"dk c #1a1a1a",
"#9 c #1a1c1b",
"eG c #1b1100",
"fp c #1b1a19",
"dn c #1c1100",
"eF c #1c1305",
"bN c #1c1b19",
"#v c #1c1c19",
"fv c #1c1c1a",
"dV c #1c1c1c",
"dD c #1d1200",
"f# c #1d1d1a",
"#w c #1d1d1d",
"#a c #1d2f2a",
"dL c #1e1300",
"#M c #1e1a11",
"#u c #1e1e1c",
"aa c #1e1e1d",
"cN c #1e1e1e",
"#G c #1f190f",
"db c #1f1a10",
"dp c #1f1c18",
"df c #1f1f1c",
"ez c #1f1f1f",
"bf c #201c16",
"du c #201f19",
"fc c #201f1c",
"b4 c #20201e",
"bg c #202020",
"ce c #211b11",
"bk c #211e19",
"#T c #212121",
"#b c #213530",
"cR c #221603",
"bi c #22190a",
"#D c #221d16",
"eM c #221e18",
"dO c #221f1b",
"cd c #222120",
"bK c #222222",
"c7 c #231e18",
"dw c #232323",
"dX c #241600",
"fC c #242420",
"fz c #242421",
"cB c #242424",
"cD c #251f16",
"#H c #252019",
"aE c #252525",
"#t c #262625",
".O c #262626",
"b6 c #271800",
"bo c #272727",
"dm c #281b07",
"fO c #282823",
"dA c #282826",
"eK c #282828",
"ar c #291900",
"dP c #291a01",
"fj c #292823",
"dr c #292925",
"#K c #292929",
"#0 c #2a1a00",
"fQ c #2a2924",
"fy c #2a2a27",
"fq c #2a2a28",
"cC c #2a2a2a",
"#F c #2b1b00",
"bd c #2b1f0d",
"fi c #2b2b2a",
"#R c #2b2b2b",
"fb c #2c1d04",
"#J c #2c2c2c",
"bu c #2d1b00",
"d6 c #2d210f",
"aP c #2d2210",
"eA c #2d261b",
"aN c #2d2d2d",
"b7 c #2e1c00",
"cr c #2e2719",
"dv c #2e2e2b",
"a4 c #2e2e2e",
"be c #2f1d00",
"ec c #2f1d02",
"#2 c #2f2515",
"ej c #2f2517",
"br c #2f2f2f",
"a6 c #301f04",
"dQ c #302617",
"a0 c #302718",
"cX c #303030",
"cw c #311e00",
"ek c #311f03",
"aY c #31220b",
"dJ c #312615",
"dx c #313131",
"aZ c #321e00",
"en c #321f00",
"cV c #322006",
"aX c #322510",
"aF c #322816",
"bv c #322817",
"a2 c #32312f",
"dE c #32322f",
"fa c #323231",
"cP c #323232",
"aK c #331f00",
"cs c #332000",
"#O c #332715",
"ac c #332816",
"c# c #332a1b",
"do c #33312e",
"cn c #33332d",
"c6 c #333333",
"as c #342000",
"eL c #342206",
"bO c #342813",
"cM c #34332d",
"aj c #343434",
"ck c #352100",
"e. c #352610",
"#1 c #352811",
"#j c #35352f",
"fx c #353532",
".0 c #353535",
"bU c #362100",
"#g c #36352f",
"e5 c #363635",
"dB c #363636",
"aQ c #372200",
"cv c #372407",
"eO c #372506",
"e6 c #372508",
"eY c #372509",
"ad c #37270e",
"#x c #373737",
"cE c #382200",
"bj c #382300",
"d0 c #382404",
"c. c #382507",
"eV c #382609",
"e7 c #38260b",
"b# c #383838",
"#N c #392300",
"aG c #392302",
"dd c #392401",
"#E c #392b16",
"cp c #393939",
"bB c #3a3a39",
"fg c #3a3a3a",
"eB c #3b2605",
"c5 c #3b3b3b",
"dN c #3c2c13",
"fw c #3c3b37",
"by c #3c3c3c",
"cT c #3d3a34",
"d4 c #3e3c30",
"d3 c #3e3d30",
"cq c #3e3e3e",
"d2 c #3f3d31",
"bp c #3f3f3f",
"dH c #403e31",
"bq c #404040",
"#y c #414033",
"eH c #414039",
"fm c #41413d",
"b3 c #414141",
"bJ c #424242",
"#5 c #434343",
"bS c #444444",
"cc c #444645",
"dq c #454545",
"fE c #46453e",
"cO c #464646",
"c3 c #474747",
"b9 c #484848",
"fh c #494841",
"cu c #494949",
"b1 c #4a4a4a",
"fR c #4b4a43",
"dj c #4b4b4b",
"bM c #4c4c4c",
"a. c #4c4e4d",
"er c #4d4d4d",
"a7 c #4e4e4e",
"fo c #4f4e45",
"a# c #4f4f4f",
"co c #4f5150",
"aI c #505050",
"dI c #515151",
"dc c #525150",
"cG c #525252",
"cL c #535249",
"cz c #535349",
"cJ c #535353",
"cy c #545349",
"c0 c #54534a",
"em c #545353",
"ch c #545454",
"di c #555349",
"dG c #55534a",
".4 c #55534b",
"da c #55544a",
".7 c #55544b",
"dh c #55554a",
"ea c #55554b",
"#U c #555555",
"dT c #56554a",
"bY c #56554b",
"dS c #56554c",
"bG c #56564b",
"dF c #56564c",
"aT c #565656",
"bH c #57564b",
".1 c #57564c",
"eD c #57564d",
".6 c #57574c",
".5 c #575757",
"e# c #58564c",
"bm c #58574c",
".X c #58574d",
"#c c #58574e",
"eR c #58584d",
"c1 c #585858",
"#. c #59574d",
".W c #59574e",
"ds c #59584d",
".N c #59584e",
"e3 c #59584f",
".F c #59594e",
"eU c #59594f",
"bR c #595959",
"#f c #5a594e",
".d c #5a594f",
"d5 c #5a5a5a",
".e c #5b594f",
"## c #5b5a4f",
".f c #5b5a50",
".g c #5b5b50",
"#z c #5b5b5b",
".3 c #5c5a50",
".8 c #5c5b50",
"au c #5c5c5c",
"fn c #5d5c52",
"eN c #5d5d52",
".P c #5d5d5d",
"av c #5e5e5e",
"bx c #5f5f5f",
"e4 c #60605f",
"ag c #606060",
"bh c #616161",
"a3 c #626262",
"aO c #636363",
"#4 c #646464",
"#S c #656565",
"b2 c #666666",
"fs c #676559",
"fG c #67665b",
"aC c #676767",
"fH c #68665b",
"aD c #686868",
"d1 c #696651",
"fI c #69685b",
"eP c #69685c",
"cU c #696969",
"eg c #6a6651",
"ep c #6a6652",
"ef c #6a6752",
".Y c #6a6a6a",
".j c #6b6853",
"a9 c #6d1a00",
"aJ c #6e1a00",
"ca c #6e1c02",
"fN c #6e6d60",
"fJ c #6f6e62",
"dg c #706f62",
"fK c #716f62",
"fS c #737264",
"#e c #757575",
"d. c #767567",
"eT c #777769",
"fu c #7b7a6c",
"fL c #7c7a6c",
"eW c #848374",
"fB c #858375",
"fY c #89877b",
"fM c #8b8879",
"cZ c #8b8a79",
"cm c #8b8a7a",
"cK c #8c8a79",
"cb c #8c8b7a",
"bX c #8d8b7a",
"cY c #8d8b7b",
".K c #8d8b7d",
"bW c #8d8c7b",
".S c #8d8c7e",
".Z c #8e8b7d",
"bF c #8e8c7b",
".G c #8e8c7d",
".x c #8e8c7e",
"bV c #8e8d7c",
".t c #8e8d7e",
".U c #8e8d7f",
"d# c #8f8d7c",
"cx c #8f8d7d",
".J c #8f8d7e",
"bE c #8f8e7d",
".o c #8f8e7f",
"bD c #908e7d",
"fU c #908e7f",
"f2 c #908e80",
"dt c #908f7d",
".D c #908f7e",
"e1 c #908f7f",
"f4 c #918e80",
"bC c #918f7e",
".# c #918f7f",
"fZ c #918f80",
"dR c #91907e",
".a c #91907f",
"f3 c #928f80",
".C c #92907f",
".E c #929080",
"#d c #92917f",
"Qt c #929180",
".b c #929181",
".9 c #939180",
".B c #939181",
"ey c #939280",
".c c #939281",
"eJ c #939282",
"f. c #939382",
"ex c #949280",
".A c #949281",
".M c #949282",
"eo c #949381",
"eI c #949382",
"ff c #949383",
"bl c #959281",
"b. c #959381",
".i c #959382",
"fr c #959383",
".z c #959482",
".h c #959483",
"e2 c #959484",
"aU c #969382",
"#6 c #969482",
".k c #969483",
"fd c #969484",
"eQ c #969583",
".l c #969584",
"fk c #969685",
".Q c #979584",
".2 c #979585",
".L c #979684",
".m c #979685",
"fl c #979686",
"eC c #989584",
"f5 c #989684",
".y c #989685",
"fe c #989686",
".R c #989785",
".n c #989786",
"f7 c #989887",
".T c #999785",
".H c #999786",
"fT c #999886",
"fF c #999887",
".I c #9a9786",
".r c #9a9886",
".v c #9a9887",
"f1 c #9a9987",
".s c #9b9886",
".q c #9b9887",
".u c #9b9987",
".V c #9b9988",
".p c #9c9987",
"ft c #9c9988",
".w c #9c9a88",
"f6 c #9c9a89",
"fV c #9d9a88",
"fW c #9d9a89",
"fX c #9d9b89",
"f0 c #9e9b89",
"Qt.#.#.#.#.a.a.aQt.b.c.c.c.c.c.d.d.e.f.f.g.g.h.i.j.h.h.k.l.l.l.l.m.m.n.n.n.n.n.o.p.o.o.q.r.s.t.u.p.o.r.v.w.x.y.m.k.k.z.A.B.c.c.A",
".C.a.#.#.D.a.a.a.EQt.F.d.d.d.d.d.d.d.d.f.g.g.g.h.j.h.h.l.l.l.l.l.m.m.y.n.n.n.y.y.o.p.t.G.H.I.J.q.q.x.r.r.q.K.x.L.l.k.h.M.B.B.B.B",
".E.E.#.D.D.a.N.N.N.F.F.d.d.d.d.d.d.d.d.d.f.g.O.P.P.P.k.l.l.l.l.l.Q.Q.m.n.R.y.y.y.S.s.T.G.x.I.r.t.H.H.U.V.u.r.t.m.Q.k.k.i.c.c.B.B",
".E.E.a.W.X.X.X.N.F.F.F.F.d.d.d.d.d.d.P.P.P.O.O.O.Y.P.P.P.h.l.l.l.l.m.m.n.y.m.y.y.K.K.y.H.x.I.T.G.Z.T.x.o.u.r.0.0.0.0.0.k.M.A.A.A",
"Qt.N.N.X.X.X.1.X.F.F.F.F.d.O.P.P.P.P.P.Y.Y.Y.O.O.O.Y.O.O.O.l.l.l.l.m.m.2.m.m.y.y.y.y.K.y.3.4.4.3.4.T.T.r.0.0.5.5.5.5.5.0.0.c.c.M",
".N.X.W.W.X.W.6.X.F.F.P.P.O.O.O.Y.Y.Y.Y.Y.Y.Y.Y.O.O.O.O.Y.P.P.P.l.l.l.l.l.m.y.y.y.y.y.4.e.e.e.4.f.f.7.8.0.5.5.0.5.5.5.0.5.5.0.c.9",
".N.W.X.X.X#..P.P.P.P.P.Y.Y.O.O.O.Y.Y.O.O.O.O.O.O.O.O.O.Y.Y.Y.P.P.P.l.l.l.m.y.y.y.m.e.e.e.e.e####.f.4.0.5.5.5.5.0.0.0.5.5.5.5.0.C",
".N.N.W.X#a#a.P.Y.Y.P.P.Y.Y.Y.O.O.O.O.O.O.Y.Y.Y.Y.Y.O.O.O.Y.Y.O.O.O.O.Q.m.l.L.m.L.Q.e.e.e.e.e.e.e####.0.0.5.5.0.5.5.5.0.5.5.0.0.a",
".N.W#.#a#a#b#b.Y.Y.Y.P.P.O.O.O.O.O.O.Y.Y.Y.Y.Y.Y.Y.Y.O.O.O.O.O.O.Y.P.P.P.l.l.Q.Q.e.e.e.e.e.e.e.e####.0.0.0.0.5.5.5.5.5.0.0.5.0Qt",
".N.W#c#a#a#b#b#b.Y.Y.O.O.O.O.O.Y.O.O.O.Y.Y.Y.Y.Y.O.O.O.O.O.O.Y.Y.Y.Y.Y.P.P.l.l.Q.e.d.d.e.e.e.e.e.e.e.0.5.5.0.0.0.0.0.0.5.5.5.0Qt",
".F.N.W#a#a#a#b#b#b.O.O.O.O.P.Y.Y.Y.O.O.O.Y.Y.O.O.O.O.Y.O.O.O.Y.Y.Y.Y.Y.P.P.P.P.l.d.d.e.e.e.e.e.e.e.e.0.5.5.5.5.5.5.5.5.5.5.5.0.E",
".N.N.N#a#b#a#a#b.O.O.O.Y.Y.P.P.Y.Y.Y.O.O.O.O.O.Y.Y.Y.Y.Y.O.O.O.P.P.P.P.P.Y.Y.P.P.e.d.e.d.d.d.e.e.d.d.0.5.5.5.5.5.5.5.5.5.5.5.0#d",
".N.F.N#a#b#b#a#a.O.O#b.Y.Y.Y.P.P.Y.O.O.O.O.O.Y.Y.Y.Y.Y.Y.P.P.O.O.Y.Y.Y.Y.Y.Y#b#a#a#a.d.d.e.d.e.e.e.d.0.5#e#e.5.5.5.5.5.5#e.5.0.9",
".e.N#f#a#b#b#b.O.O#b#b#b.Y.Y.Y.O.O.O.Y.Y.O.O.O.Y.P.P.P.P.P.Y.O.O.O.Y.Y#b#b#b#b#b#b#a#a.d.d.d.d.d.d.d.0.5#e.5.5#e.5.5.5.5#e#e.0.i",
".f.e.d#a#b#b#b.O.O#a#b#b#b.Y.O.O.O.P.Y.Y.Y.O.O.O.P.Y.Y.Y.Y.Y.Y.O.O#b#b#b#b#b#a#a#a#a#a.d.d.d.d.e.e.e.0.5.5.5.5#e.5#e#e.5.5.5.0.i",
".g.f.e#a#b#b#b.O.O#a#a#b#b#b.O.O.Y.P.P.P.P.P.O.O.O.Y.Y.Y.Y#b#b#b.O.O#b#a#a#a#a#b#b#b#a#g.d.d.d.d.e.e.0.5.5.5.5.5.5.5.5.5.5.5.0.i",
".f.g.f#a#b#b#b.O.O#b#a#a#b.O.O.Y.Y.Y.P.Y.Y.Y.Y.O.O.Y#b#b#b#b#b#b.O.O#a#a#b#b#b#b#b#b#a#g#g#g.d.d.d.d.0.5.5.5.5.5.5.5.5.5.5.5.0.i",
".f.f.f#a#b#b#b.O.O#b#b#a#a.O.O#b.Y.P.P.Y.Y.Y.Y.O.O#b#b#b#b#a#a#a.O.O#b#b#h#h#h#h#h#h#i#j#g#g#g.N.N#f.0.5.5.5.5.5.5.5.5.5.5.5.0.i",
".f.f.f#a#b#b#b.O.O#b#b#b.O.O#b#b#b.P.Y.Y#b#b#b.O.O#a#a#a#a#b#b#b.O.O#b#h#h#h#k#l#m#n#o#p#q#r#s#t#u#v#w#x.5.5.5.5.5.5.5.5.5.5.0.i",
"#y#y#y#a#b#b#b.P.O#b#b#b.O.O#a#a#b#a#b#b#b#b#a.O.O#a#b#b#b#b#b#z.O#A#h#h#h#h#B#C#D#E#F#G#H#I#J.Y.Y.Y#K#r#K.5.5.5.5.5.5.5.5.5.0.j",
".f.f.f#a#b#b.P.Y.P#b#b#b.O.O#b#a#a#a#b#a#a#a#a.O.O#b#b#b#z#b#z#z#A#A#h#h#h#h#L#M#N#N#N#N#N#O#P#Q#R#S.Y#x#r#T#U.5.5.5.5.5.5.0.0.i",
".f.f.f#a#b#b.O.P#b#b#b#b.O.O#b#b#a#a#a#a#b#b#b.O.O.O#z#b#z#b#b#h#A#A#h#h#h#V#W#X#Y#Z#0#N#N#N#1#2#3#Q#4.Y#5#r.5.5.5.5.5.0.0.0.0#6",
".g##.e#a#b#b.O.O#b#b#b#b.O.O#b#b#b#a#b#b#b#b#b#z.O.O#z#b#b#h#h#h#A#A#h#h#7#8#9a.a#aaabac#N#N#N#Nadaeafag.Yahaiaj.0.0.0.0.5.5.0#6",
".f.f.e#a#b#b.O.O#b#b#b#b.O.O#b#b#b#a#b#b#z#b#z#b.O.O#b#b#h#h#h#hakal#hamanao#4.Y.Y#S.Oapaqar#N#N#Nasatau.Yavaw#U.5.5.5.5.5.5.0.k",
".f.f###a#b#b.O.O#b#b#b#b.O.O#b#b#b#a#b#z#b#b#b#b.O.O#b#h#h#haxanayazaAaBah.O#S#4aC.YaD#SaE#3aFaG#N#NaH#3#z.Y#3aI.5.5.5.5.5.5.0.h",
"##.e.d#a#b#b.O.O#b#b#b#b.P.O#b#b#b#a#b#b#baJ#b#b.O.O#h#h#h#h#kaAaK#N#N#NaFaLaLaMaNaO.Y.Y.Y#R#3aPaQ#N#NaR#r#SaSawaT.5.5.5.5.5.0aU",
".9.e#f#a#a#b.O.O#b#b#b.P.Y.P#b#b#b#a#b#baJaJ#b#b.P#A#h#h#h#haV#raWaXaYaZ#N#N#Na0a1a2a3.Y.Y.Ya4a5a6#N#N#Naya7.Ya8a9aJ.5.5.5.5.0b.",
"#d.F.F.F#a#a.O.O#b#b#b.O.P#b#b#b#b#a#baJ#baJ#b.P.Yb##h#h#h#hba#rap#Tbbbcbdbe#N#N#Nbfbgbh.Y.Y.Yakbibj#N#Nbk#r.Yaya9aJ.5.5.5.5.0bl",
"#d.C.a.Xbm#a.O.O#b#b#b.O.O#b#b#b#b#a#b#baJaJ#b#bb##A#h#h#hbn#rboapbpbqbrbsbtbu#N#Nbvbw#Tbx.Y.Yby#rbz#N#N#NbAbB#raTaJ.5.5.5.5.0.9",
"bCbDbEbFbGbH.O.O#b#b#b.O.O#b#b#b#b#a#baJ#b#b#b#h#A#A#h#hbI#rbJ.Y#xbKbLbMa3bNbc#0#N#NbObPbQbR.Y.YbS#rbTbU#N#r#ra4aJaJ.5.5.5.5.0#d",
"bEbVbVbWbXbYbY.O#a#b#b.O.O#b#b#b#b#a#b#b#b#b#b#h#A#AbZb0#rb1.Y.Y.Yb2a4ayb3aOb4b5b6#N#Nb7b8b9.Y.Y.YbMawc.#Nc#aycaaJaJ.5.5.5.5.0.C",
"bFbWcbcbbWcbbYbY#a#b#b.O.O#b#b#b#b.0.0.0.0.0#h#h#A#A#h#rcc.Y.Y.Y.Y.Yb2ajahby#4cdce#N#N#Ncfcgch.Y.Y.Ycicjck#N#rclaT.5.5.5.5.5.0bD",
"bWbWbWbXbXcbcmcn#i#i#b.O.O#b#b.0.0.5.5.5.5.5.0.0#Acl#Wco.Y.Y.Y.Y.Y.Y.YaCcpaycqbpalcr#N#Ncsctcu.Y.Y.Yauaycv#Ncw#raT.5.5.5.5.0.0cx",
"bXbWbXcbcbcyczczcn#i#i#A.O#b.0.5.5.0.5.5.5.0.5.5.0claw.Y.Y.Y.YaTcAcibKaDaD#xcB#ScCcDcE#N#NcF#CcG.Y.Y.YcHcIbU#NaycJ.5.5.0.0.0.0bV",
"bWcKcbcbczcLcLczczcM#i#A#A.0.5.5.5.5.0.0.0.5.5.5.5.0aw.Y.Y.Y#zahbg.5cAcNaOcOapcPbycQcR#N#N#NcScTaD.Y.YcUalcVaKcW#3a7brcX.0.0bVcY",
"bWcYcZcbc0cLczczczcycM#A#A.0.0.5.5.0.5.5.5.0.5.5.0.0aw.Y.Y.Yc1c2.Y.Ychc2bK.Yc3c4c5c6c7c.#N#Nc8ahcJ.Y.Y.Y#w#r#rc9#r#raiayd.bEd#bF",
"bVbFbWdadac0cycycycycy#A#A.0.0.0.0.5.5.5.5.5.0.0.5.0aw.Y.Y.Yc1c2.Y.Y.Yc3akbR.Y.0aEc5cAdbas#N#Nb8dc.Y.Y.YaT#r#rdddeal.YdfawdgbDbD",
"bDbEbVdhdac0czdicycycycM#A.0.5.5.0.0.0.0.0.0.5.5.5.0#r.Y.Y.Yc1ahdj.Y.Yc1dk#T.YbMdlbybMatdm#N#NdndoaC.Yc3#rdpcW#N#Nahdq.Ydr#rds.D",
"dtbDbEbYbYcycycydicyc0c0cy.0.5.5.5.5.5.5.5.5.5.5.5.0dudv.Y.YaO#K#rbS.Ybhdwbg.Y.YdxcP.Ydwdyad#N#NdzdAdB#rdC#N#rdD#N#rah.YcUdE#rbC",
"dtbDbEbYdFdacycyczdGdac0c0.0.5.5.5.5.5.5.5.5.5.5.5.0dH#r.Y.Y.YaDcX#rdwaSdldI.Y.Ya4c6.YdIc2dJ#N#NdK#r#rdL#N#Nb6#rdM#r#rdx.Ybx#rbC",
".CbDbEbYbYdhdacycyc0dadada.0.5#e#e.5.5.5.5.5.5#e.5.0.X#C.Y.Y.Y.YaDb1cOc3c1.Y.Y.YaNdB.Y.Y.Oa1dNdncW#r#rck#N#NdO#r#rdPdQay.YbR#r.D",
".CdR.DdSdFbYdTdhdadadadada.0.5#e.5.5#e.5.5.5.5#e#e.0dU#rdV.Y.Y.Y.Y.Y.Y.Y.Y.Y.Y.Yajcia7c5bL#rdW#rdXb7dYaK#NdZ#rcG#3#Nd0#r#Tav#rbD",
"d1d1d1d2d2d2d3d3d3d3d3d4d4.0.5.5.5.5#e.5#e#e.5.5.5.0ayd5#3cU.Y.Y.Y.Y.Y.Y.Y.Y.Y.Y.0#ral#3dqdw#rd6#N#Nd7d8d9#r#z.YbLbjdde.c4av#rd1",
".C.C.9.Ce#.1.1dFbYeaeaeadh.0.5.5.5.5.5.5.5.5.5.5.5.0.P.P#rcHaO.Y.Y.Y.Y.Y.Y.Y.Yb2dx#r#3bJ.YaDbKebec#Nased#rag.YaDcAee#NasdYay#r.c",
".9efefQteg.1.1d2d2dFbYbYea.0.5.5.5.5.5.5.5.5.5.5.5.0ehcH#r#reibRbRav.Y.Y.Y.Y.Ycp#r#rajd5bR#S.YaSejekd9elawemcU.YaD#3cw#Nen#r#r.A",
"eoefef.9epd2.1.1d2dFdSd3d3.0.5.5.5.5.5.5.5.5.5.5.5.0.YcUeqaS#rawcHeierererera##J#rciesaSawc6b2aN#retdKcEeu#r.Y.YaCevew#NaZ#r#r.i",
".zexeyblQtbCe#e#dF.1dF.1d2.0.5.5.5.5.5.5.5.5.5.5.5.0.Y.Y.YaDdVcH.YbK#w#w#w#wcH#rcHer.Y.Ycqezcp.YeheAeB#N#N#rbJcU.Y.YbL#Nas#r#r.k",
"eC.i.A.zQt.a.1bm.1.1dF.1eD.0.5.5.5.5.5.5.5.5.5.5.5.0.Y.Y.Y.Yb2#J#5.Y.Y.Y.Y.YbJakaI.Y.Y.Y.Y.YeE#J#x#reFbU#NeG#r.Y.Y#4al#NeGaheH.c",
".ieI.AeIeJQtQt.X.X.1.1.1.1.0.0.5.5.5.5.5.5.5.5.5.0.0eKeK.0.Y.YbRci.Y.Y.Y.Yches#J.Y.YcOch.Y.Yb9bLbxc3#reL#N#N#ra4.Y#4ayeM#reN.AeI",
".h.keIeI.h.c.c.X.X.X.1.Xe#.0.0.0.0.5.5.5.5.5.0.0.0.0bqc5#r#J.Ychei.Y.Y.Y.Yc5cl.5.YdqalaibKbR.YaSdkaCeieO#N#Nb6#rcU.Y#r#rePeI.i.i",
".k.leQ.h.keI.c.c.N.X.XeReR.0.5.5.0.0.0.0.0.0.0.5.5.0.Y.YcubL.Y#SbJbo.Y.Y.Yc5bo.Y.YeKeKa#aScHchc1cA#zeieSc.#N#N#3.Y#AaheT.i.h.keQ",
".L.l.h.l.l.h.c.ceU.NeR.N.N.0.5.5.5.5.5.5.5.5.5.5.5.0ak.YaOcA.Y.YcJeh.Y.Y.Yc5aE.Y.YcCb#.Ya3aSb9.YehaTav#3eV#N#NahaLaheW.m.m.l.l.l",
".m.m.l.l.l.heI.c.leU.N.Nds.0.5.5.5.5.5.5.5.5.5.5.5.0ayagaleh.Y.YdIeX.Y.Y.Yc5aE.Y.YcCajaDaDeqb9.YcH#U.YcAeY#NeZ#re0e1.m.m.n.m.l.m",
".n.R.l.Q.l.leIeIe2.de3.N.N.0.5.5.5.5.5.5.5.5.5.5.5.0c2c2aS.Y.Y.YdIeX.Yb2e4e5.O.Y.Yb#albqaEc4aI.YcHaTbxape6e7e8e9f..m.y.n.n.n.m.m",
".n.m.l.Q.m.m.heI.h.leU.N.N.0.5.5.5.5aJaJaJ.5.5.5.5.0.Y.Y.Y.Y.Y.YdIaS#Scpatf#faau.Y.Yc5esclcJ.Y.YcH#zcH#rfb#3fc.m.hfd.l.2.m.mfe.m",
"fe.n.m.l.m.m.hff.l.leU.NeU.0.5.5.5.5.5aJaJ.5.5.5.5.0.Y.Y.Y.Y.YcUbqa4fgahc0.Hfhfi.Y.Y.Y.Y.Y.Y.YcJalagak#rcjfj.lfefk.l.lfd.l.l.l.m",
".l.m.mfl.m.l.l.h.l.l.heUeU.0.5.5.5.5aJ.5aJ.5.5.5.5.0.Y.Y.Y.Y.YcPcAfmahfn.u.ufofpbR.Y.Y.Y.Y.Y.YeEbo#5bLfq.n.y.l.l.m.m.l.h.hfr.h.l",
"fr.h.h.l.n.l.h.h.Q.l.heUeU.0.5.5.5.5.5aJaJ.5.5.5.5.0.Y.Y.Y.Y#R#r#rahfs.qft.wfudfes#U.Y.Y.Y.Y.Yfvfw#rfx.R.y.m.m.l.l.l.k.h.heIeIeI",
".M.MeIeI.l.n.heI.h.l.h.heU.0.5.5.5.5aJaJaJ.5.5.5.5.0fybKbKfz#r#rfAdg.u.u.Vft.wfBfCfDfq#U.Y.Yby#P#rfE.y.nfF.H.m.m.m.l.h.h.hfr.A.c",
".c.c.c.ceI.h.l.h.h.h.h.heU.0.5.5.5.5.5.5.5.5.5.5.5.0fGfHfHfIfJfKfL.u.u.u.u.V.VftfMfNfOfPfQfQbLfRfSft.UfT.H.n.y.Q.m.m.l.heIfreI.c",
".c.B.B.bQt.ceI.h.l.heIeIeI.0.0.5.5.5.5.5.5.5.5.5.0.0.m.y.y.y.yfT.u.u.u.v.ufUft.w.Vft.wfVfWfVfXfYfWfXfZf0.H.H.m.Q.Q.l.m.lfreI.M.c",
"QtQtQtQtQtQt.beI.h.heIeIeI.0.0.0.5.5.5.5.5.5.0.0.0.0.L.y.L.y.T.H.v.uf1.v.u.o.oft.o.u.w.wf2f3fXf4fZfXf0f3fW.H.L.l.l.l.l.l.h.ieI.c",
".BQtQt.EQtQt.c.MeI.heIeIeIeI.0.0.0.0.5.5.5.0.0.0.0.l.Qf5.Q.L.y.T.r.u.v.q.u.VfUft.o.oftft.wf2f0f0fZfXfXfXfZ.n.2.l.l.l.h.ieIeI.M.c",
".cQt.EQt.E.a.c.BeIeIeI.c.M.MeIeI.0.0.0.0.0.0.0.h.j.l.l.l.Q.Q.Q.y.y.H.H.vfT.r.ofUft.o.uftftfUf6fXf3f3f0f0f3f7.n.m.Q.l.i.M.A.c.ceI"};
